<svg width="959" height="254" viewBox="0 0 959 254" fill="none" xmlns="http://www.w3.org/2000/svg">
<g filter="url(#filter0_d_25_138)">
<path d="M142.25 172.5C142.25 177.5 142 182.583 141.5 187.75C141 192.75 140 197.667 138.5 202.5C137 207.167 134.75 211.667 131.75 216C128.75 220.167 124.667 223.833 119.5 227C117 228.667 114 230.083 110.5 231.25C107.167 232.25 103.583 233.083 99.75 233.75C96.0833 234.583 92.4167 235.083 88.75 235.25C85.0833 235.583 81.6667 235.667 78.5 235.5C63.5 235 51.3333 231.417 42 224.75C32.8333 217.917 25.75 209.5 20.75 199.5C15.9167 189.5 12.75 178.667 11.25 167C9.91667 155.167 9.66667 143.917 10.5 133.25C11 126.917 12.0833 120.083 13.75 112.75C15.5833 105.417 18.1667 98.3333 21.5 91.5C25 84.6667 29.25 78.5 34.25 73C39.4167 67.5 45.5 63.3333 52.5 60.5C59 57.8333 66.0833 56.1667 73.75 55.5C81.5833 54.6667 89.25 54.9167 96.75 56.25C104.417 57.5833 111.5 60 118 63.5C124.667 67 129.917 71.6667 133.75 77.5C136.417 81.8333 138.5 87.0833 140 93.25C141.5 99.4167 141.75 105.333 140.75 111C139.917 116 138.167 119.5 135.5 121.5C132.833 123.333 129.917 124.083 126.75 123.75C123.583 123.25 120.5 121.917 117.5 119.75C114.667 117.417 112.75 114.5 111.75 111C110.583 107.167 109.167 103.667 107.5 100.5C105.833 97.1667 103.25 94.4167 99.75 92.25C95.75 89.75 91.5 88.3333 87 88C82.6667 87.6667 78.4167 88.1667 74.25 89.5C70.25 90.8333 66.4167 92.9167 62.75 95.75C59.25 98.5833 56.3333 101.833 54 105.5C51.1667 109.667 49 114.25 47.5 119.25C46 124.083 44.9167 129.167 44.25 134.5C43.5833 139.667 43.3333 144.917 43.5 150.25C43.8333 155.417 44.5 160.417 45.5 165.25C47.3333 173.417 50.1667 181.083 54 188.25C55.5 190.917 57.5 193.333 60 195.5C62.6667 197.5 65.5833 199.167 68.75 200.5C71.9167 201.667 75.25 202.417 78.75 202.75C82.25 203.083 85.5833 202.833 88.75 202C93.25 200.833 96.9167 199.333 99.75 197.5C102.583 195.5 104.833 193.167 106.5 190.5C108.167 187.833 109.25 184.917 109.75 181.75C110.417 178.583 110.75 175.25 110.75 171.75V171.5C108.583 171.5 106.667 171.5 105 171.5C103.333 171.333 102.083 171.25 101.25 171.25C97.5833 171.25 94 170.583 90.5 169.25C87.5 168.25 85.25 166.667 83.75 164.5C82.0833 162.667 81.25 160.417 81.25 157.75C81.25 156.75 81.25 155.833 81.25 155C81.4167 154 81.5833 153 81.75 152C82.25 150.667 83.3333 149 85 147C86 146.167 87.5833 145.5 89.75 145C90.75 144.667 91.75 144.417 92.75 144.25C93.75 143.917 94.9167 143.667 96.25 143.5C97.25 143.333 98.3333 143.25 99.5 143.25C100.667 143.25 101.833 143.25 103 143.25H125.75C127.583 143.083 129.667 143.333 132 144C134.5 144.5 136.417 145.333 137.75 146.5C138.25 147.167 138.75 147.833 139.25 148.5C139.75 149.167 140.167 149.917 140.5 150.75C141.167 152.583 141.583 154.417 141.75 156.25C141.917 157.25 142 158.333 142 159.5C142.167 160.5 142.25 161.417 142.25 162.25V172.5ZM191.594 126.75C196.594 124.25 201.844 122.5 207.344 121.5C212.844 120.333 218.26 120.083 223.594 120.75C229.094 121.25 234.344 122.667 239.344 125C244.344 127.167 249.01 130.333 253.344 134.5C257.677 138.833 261.01 143.583 263.344 148.75C265.677 153.917 267.344 159.667 268.344 166C269.01 170.333 270.094 174.333 271.594 178C273.094 181.667 274.677 185.333 276.344 189C278.177 192.667 279.844 196.333 281.344 200C283.01 203.667 284.344 207.5 285.344 211.5C286.177 215.333 285.844 219.083 284.344 222.75C283.01 226.25 280.177 228.417 275.844 229.25C273.344 229.75 270.927 229.583 268.594 228.75C266.427 227.75 264.427 226.417 262.594 224.75C260.76 222.917 259.094 221 257.594 219C256.26 216.833 255.01 214.833 253.844 213C250.01 218 245.844 221.917 241.344 224.75C236.844 227.417 231.427 229.167 225.094 230C219.76 230.667 214.677 230.833 209.844 230.5C205.01 230.167 199.844 229.25 194.344 227.75C187.177 225.917 181.26 222.75 176.594 218.25C172.094 213.583 168.594 208.25 166.094 202.25C163.76 196.083 162.51 189.5 162.344 182.5C162.177 175.5 163.01 168.583 164.844 161.75C167.177 152.75 170.677 145.417 175.344 139.75C180.01 134.083 185.427 129.75 191.594 126.75ZM197.844 156C195.51 158.333 193.677 161.083 192.344 164.25C191.01 167.417 190.177 170.75 189.844 174.25C189.677 177.75 190.01 181.25 190.844 184.75C191.677 188.25 193.01 191.333 194.844 194C196.51 196.333 199.344 198.333 203.344 200C207.344 201.5 211.51 202.417 215.844 202.75C220.844 203.083 225.177 201.75 228.844 198.75C232.677 195.75 235.51 192 237.344 187.5C239.344 182.833 240.26 177.917 240.094 172.75C239.927 167.417 238.51 162.583 235.844 158.25C233.844 155.083 231.177 152.75 227.844 151.25C224.677 149.75 221.26 149 217.594 149C213.927 148.833 210.26 149.417 206.594 150.75C203.094 151.917 200.177 153.667 197.844 156ZM306.393 143.5C306.393 141.5 306.393 139.25 306.393 136.75C306.393 134.083 306.476 131.417 306.643 128.75C306.809 125.917 307.059 123.25 307.393 120.75C307.893 118.083 308.559 115.75 309.393 113.75C310.726 110.75 312.809 108.75 315.643 107.75C318.476 106.583 321.559 106.083 324.893 106.25C328.393 106.25 331.143 106.833 333.143 108C335.143 109.167 336.643 110.75 337.643 112.75C338.643 114.583 339.226 116.75 339.393 119.25C339.726 121.583 339.893 124.083 339.893 126.75C341.393 124.083 343.393 121.917 345.893 120.25C348.559 118.583 351.226 117.25 353.893 116.25C356.559 115.25 358.976 114.583 361.143 114.25C363.309 113.75 364.559 113.5 364.893 113.5C369.059 113.167 372.809 113.083 376.143 113.25C379.643 113.417 383.476 114.167 387.643 115.5C390.309 116.5 393.059 117.917 395.893 119.75C398.726 121.417 401.226 123.417 403.393 125.75C405.559 128.083 406.976 130.667 407.643 133.5C408.476 136.167 408.143 139 406.643 142C404.309 146.167 401.726 148.25 398.893 148.25C396.059 148.083 392.976 147.583 389.643 146.75C387.809 146.417 385.643 145.667 383.143 144.5C380.643 143.333 378.476 142.583 376.643 142.25C370.976 141.417 365.976 141.833 361.643 143.5C357.309 145.167 353.559 147.167 350.393 149.5C346.726 152.333 343.559 155.583 340.893 159.25V195.25C340.893 199.75 340.809 204.417 340.643 209.25C340.643 214.083 339.976 218.5 338.643 222.5C337.476 226.333 335.393 229.5 332.393 232C329.559 234.333 325.393 235.333 319.893 235C316.893 234.833 314.226 233.417 311.893 230.75C309.559 227.917 308.143 225.167 307.643 222.5C307.309 220 307.059 217 306.893 213.5C306.726 210 306.559 206.333 306.393 202.5C306.393 198.667 306.393 194.833 306.393 191C306.393 187 306.393 183.333 306.393 180V143.5ZM442.57 126.75C447.57 124.25 452.82 122.5 458.32 121.5C463.82 120.333 469.237 120.083 474.57 120.75C480.07 121.25 485.32 122.667 490.32 125C495.32 127.167 499.987 130.333 504.32 134.5C508.654 138.833 511.987 143.583 514.32 148.75C516.654 153.917 518.32 159.667 519.32 166C519.987 170.333 521.07 174.333 522.57 178C524.07 181.667 525.654 185.333 527.32 189C529.154 192.667 530.82 196.333 532.32 200C533.987 203.667 535.32 207.5 536.32 211.5C537.154 215.333 536.82 219.083 535.32 222.75C533.987 226.25 531.154 228.417 526.82 229.25C524.32 229.75 521.904 229.583 519.57 228.75C517.404 227.75 515.404 226.417 513.57 224.75C511.737 222.917 510.07 221 508.57 219C507.237 216.833 505.987 214.833 504.82 213C500.987 218 496.82 221.917 492.32 224.75C487.82 227.417 482.404 229.167 476.07 230C470.737 230.667 465.654 230.833 460.82 230.5C455.987 230.167 450.82 229.25 445.32 227.75C438.154 225.917 432.237 222.75 427.57 218.25C423.07 213.583 419.57 208.25 417.07 202.25C414.737 196.083 413.487 189.5 413.32 182.5C413.154 175.5 413.987 168.583 415.82 161.75C418.154 152.75 421.654 145.417 426.32 139.75C430.987 134.083 436.404 129.75 442.57 126.75ZM448.82 156C446.487 158.333 444.654 161.083 443.32 164.25C441.987 167.417 441.154 170.75 440.82 174.25C440.654 177.75 440.987 181.25 441.82 184.75C442.654 188.25 443.987 191.333 445.82 194C447.487 196.333 450.32 198.333 454.32 200C458.32 201.5 462.487 202.417 466.82 202.75C471.82 203.083 476.154 201.75 479.82 198.75C483.654 195.75 486.487 192 488.32 187.5C490.32 182.833 491.237 177.917 491.07 172.75C490.904 167.417 489.487 162.583 486.82 158.25C484.82 155.083 482.154 152.75 478.82 151.25C475.654 149.75 472.237 149 468.57 149C464.904 148.833 461.237 149.417 457.57 150.75C454.07 151.917 451.154 153.667 448.82 156ZM692.619 173.75C692.952 179.083 693.119 184.167 693.119 189C693.119 193.667 692.952 198.667 692.619 204C692.619 206 692.619 208.25 692.619 210.75C692.619 213.25 692.452 215.667 692.119 218C691.786 220.333 691.202 222.5 690.369 224.5C689.536 226.5 688.286 228.083 686.619 229.25C684.619 230.583 682.369 231.5 679.869 232C677.369 232.333 675.036 232.167 672.869 231.5C670.702 230.833 668.786 229.583 667.119 227.75C665.619 225.917 664.786 223.333 664.619 220C664.119 212.333 663.869 204.667 663.869 197C663.869 193.167 663.786 189.5 663.619 186C663.619 182.5 663.702 177.583 663.869 171.25C663.869 168.083 663.619 164.5 663.119 160.5C662.619 156.333 661.369 153.417 659.369 151.75C657.869 150.417 656.202 149.667 654.369 149.5C652.536 149.167 650.702 149.333 648.869 150C647.202 150.667 645.702 151.917 644.369 153.75C643.036 155.417 642.119 157.583 641.619 160.25C641.619 162.417 641.536 164.667 641.369 167C641.369 169.167 641.452 171.25 641.619 173.25C641.786 178.583 641.869 183.667 641.869 188.5C641.869 193.167 641.786 198.167 641.619 203.5C641.452 205.667 641.369 208 641.369 210.5C641.536 213 641.536 215.5 641.369 218C641.202 220.333 640.702 222.5 639.869 224.5C639.202 226.5 637.952 228.083 636.119 229.25C634.119 230.583 631.952 231.417 629.619 231.75C627.452 231.917 625.369 231.583 623.369 230.75C621.536 229.75 619.869 228.25 618.369 226.25C617.036 224.25 616.286 221.583 616.119 218.25C615.786 214.417 615.536 210.917 615.369 207.75C615.369 204.417 615.369 200.917 615.369 197.25C615.369 193.417 615.452 189.5 615.619 185.5C615.786 181.333 615.702 177.333 615.369 173.5C615.369 172.333 615.286 171 615.119 169.5C615.119 167.833 615.036 166.167 614.869 164.5C614.869 162.833 614.702 161.25 614.369 159.75C614.202 158.083 613.869 156.75 613.369 155.75C612.036 153.417 609.619 151.917 606.119 151.25C602.786 150.583 599.952 150.833 597.619 152C595.286 153.167 593.536 154.667 592.369 156.5C591.202 158.333 590.369 160.333 589.869 162.5C589.369 164.667 589.119 167 589.119 169.5C589.119 171.833 589.119 174.083 589.119 176.25C589.119 187.083 589.119 196.5 589.119 204.5C589.286 212.333 588.452 218.667 586.619 223.5C585.786 226 584.036 227.917 581.369 229.25C578.869 230.583 576.119 231.25 573.119 231.25C570.286 231.25 567.619 230.583 565.119 229.25C562.619 227.917 560.952 225.833 560.119 223C559.619 221.167 559.119 218.583 558.619 215.25C558.286 211.75 558.036 207.917 557.869 203.75C557.702 199.583 557.619 195.417 557.619 191.25C557.619 186.917 557.619 183 557.619 179.5V143.5C557.452 139.667 557.369 135.5 557.369 131C557.369 126.5 558.036 122.417 559.369 118.75C560.536 115.583 562.369 113.583 564.869 112.75C567.369 111.75 569.952 111.333 572.619 111.5C575.619 111.5 577.952 112.333 579.619 114C581.452 115.5 582.786 117.417 583.619 119.75C584.452 121.917 584.952 124.417 585.119 127.25C585.286 129.917 585.452 132.5 585.619 135C587.452 130.833 589.619 127.417 592.119 124.75C594.786 121.917 598.536 120.083 603.369 119.25C615.702 116.917 625.536 120.083 632.869 128.75C636.202 125.417 640.452 122.667 645.619 120.5C649.619 119 653.702 118.333 657.869 118.5C662.036 118.5 665.952 119.25 669.619 120.75C673.452 122.25 676.869 124.417 679.869 127.25C683.036 130.083 685.536 133.5 687.369 137.5C689.869 142.833 691.286 148.75 691.619 155.25C691.952 161.75 692.286 167.917 692.619 173.75Z" fill="black"/>
</g>
<path d="M781.48 92.1113C767.171 100.8 757.086 113.79 757.599 131.24C757.968 143.701 763.571 155.353 774.362 162.032C781.336 166.349 789.088 167.918 797.201 168.311C805.538 168.711 814.388 166.909 821.555 162.569C830.422 157.211 836.322 148.178 839.424 138.48C846.014 117.882 833.933 95.8993 813.547 89.7168C799.702 85.5205 782.779 94.73 779.524 109.017C776.125 123.936 784.022 138.504 798.844 143.004L799.87 143.317L793.265 140.53C793.93 140.786 794.563 141.114 795.149 141.531L789.553 137.214C790.451 137.919 791.124 138.584 791.846 139.465L787.525 133.875C787.958 134.459 788.326 135.084 788.631 135.741C787.701 133.538 786.771 131.344 785.841 129.142C786.306 130.303 786.563 131.272 786.771 132.513L785.785 125.17C785.881 126.059 785.889 126.956 785.809 127.845L786.795 120.501C786.539 122.343 786.082 123.977 785.368 125.698L788.158 119.099C787.581 120.245 786.996 121.262 786.266 122.311L790.587 116.721C789.785 117.682 789.04 118.419 788.046 119.188L793.641 114.871C792.936 115.344 792.19 115.72 791.389 116L797.994 113.213C797.193 113.494 796.375 113.702 795.541 113.83L802.893 112.845C800.055 113.197 797.241 113.157 794.403 112.813L801.754 113.798C800.263 113.542 798.892 113.181 797.489 112.621L804.095 115.408C803.446 115.119 802.845 114.759 802.275 114.334L807.871 118.651C807.31 118.227 806.821 117.738 806.396 117.177L810.717 122.767C810.268 122.167 809.915 121.502 809.675 120.789L812.464 127.388C812.216 126.643 812.056 125.875 811.983 125.09L812.97 132.433C812.873 130.84 812.897 129.286 813.034 127.692L812.048 135.036C812.248 133.819 812.505 132.818 812.953 131.673L810.164 138.271C810.476 137.599 810.853 136.958 811.294 136.357L806.973 141.947C807.935 140.738 808.969 139.721 810.156 138.736L804.56 143.052C806.107 141.883 807.727 140.842 809.386 139.833C821.748 132.329 827.496 114.727 819.311 102.034C811.31 89.6367 794.7 84.087 781.472 92.1193L781.48 92.1113Z" fill="#FFABF9"/>
<path d="M788.222 82.9898C772.59 83.0859 756.444 84.4393 742.736 92.7039C727.368 101.978 716.273 119.139 717.604 137.511C718.422 148.786 722.743 158.549 730.615 166.773C735.834 172.227 742.6 176.864 749.141 180.684C755.683 184.504 762.345 187.282 769.207 189.749C774.041 191.479 779.139 192.368 783.885 194.314L777.28 191.527C778.546 192.12 779.709 192.768 780.847 193.577C778.979 192.136 777.119 190.694 775.251 189.261C776.045 189.933 776.678 190.574 777.336 191.383L773.015 185.793C773.416 186.346 773.752 186.93 774.025 187.555L771.235 180.956C771.58 181.757 771.812 182.582 771.932 183.446L770.946 176.103C771.059 177.448 771.019 178.617 770.866 179.955L771.852 172.611C771.195 176.199 769.888 179.602 769.135 183.158C767.507 190.814 767.467 197.389 768.998 205.021C771.379 216.937 779.252 227.765 789.697 233.931C802.339 241.395 817.475 241.515 830.534 235.212C839.961 230.656 845.581 222.607 851.762 214.583L847.441 220.173C849.389 217.682 851.401 215.376 853.894 213.414L848.299 217.73C850.03 216.521 851.794 215.552 853.734 214.727L847.128 217.514C849.108 216.793 851.072 216.297 853.157 215.984C850.704 216.313 848.259 216.641 845.805 216.969C847.906 216.769 849.918 216.777 852.018 217.017L844.667 216.032C845.493 216.153 846.303 216.313 847.112 216.521C861.189 219.724 877.712 212.22 881.135 197.221C884.341 183.166 876.902 166.669 861.815 163.233C848.892 160.294 836.57 161.704 824.674 167.494C814.909 172.251 809.001 180.171 802.596 188.508C804.039 186.642 805.482 184.784 806.917 182.918C805.057 185.312 803.165 187.611 800.832 189.557L806.428 185.24C805.209 186.137 803.999 186.858 802.62 187.483L809.226 184.696C808.135 185.08 807.133 185.336 805.995 185.529L813.346 184.544C812.2 184.64 811.158 184.648 810.011 184.56L817.363 185.545C815.847 185.32 814.461 184.96 813.026 184.424L819.631 187.21C818.236 186.57 816.994 185.841 815.759 184.928L821.355 189.245C820.457 188.468 819.703 187.707 818.934 186.81L823.255 192.4C822.293 191.094 821.523 189.781 820.842 188.308C821.772 190.51 822.702 192.704 823.632 194.906C823.046 193.393 822.629 191.903 822.333 190.31L823.319 197.653C823.062 195.627 823.046 193.689 823.263 191.663L822.277 199.007C823.431 192.023 826.181 185.921 826.325 178.633C826.55 167.95 822.333 157.948 814.749 150.484C805.193 141.082 791.958 139.785 780.133 134.98L786.739 137.767C780.061 134.924 773.864 131.304 768.125 126.876L773.72 131.192C771.628 129.51 769.704 127.764 768.004 125.674L772.325 131.264C771.572 130.199 770.946 129.174 770.369 127.997L773.159 134.596C772.574 133.122 772.181 131.697 771.932 130.127L772.918 137.471C772.774 135.893 772.79 134.387 772.951 132.81L771.965 140.153C772.285 138.167 772.814 136.333 773.576 134.475L770.786 141.074C771.476 139.633 772.253 138.303 773.183 136.998L768.862 142.588C770.169 140.946 771.588 139.521 773.199 138.175L767.603 142.492C769.96 140.698 772.421 139.296 775.131 138.111L768.525 140.898C772.381 139.369 776.334 138.464 780.438 137.895C777.985 138.223 775.54 138.552 773.087 138.88C778.121 138.311 783.172 138.223 788.238 138.191C802.7 138.103 816.569 125.546 815.896 110.563C815.222 95.5789 803.742 82.8377 788.238 82.9338L788.222 82.9898Z" fill="#FFABF9"/>
<path d="M796.92 236.221C811.39 236.221 825.243 223.512 824.578 208.593C823.912 193.673 812.424 180.964 796.92 180.964C782.45 180.964 768.598 193.673 769.263 208.593C769.928 223.512 781.416 236.221 796.92 236.221Z" fill="#FFABF9"/>
<path d="M797.225 243.045C811.695 243.045 825.548 230.335 824.882 215.416C824.209 200.448 812.729 187.787 797.225 187.787C782.755 187.787 768.902 200.496 769.568 215.416C770.233 230.335 781.721 243.045 797.225 243.045Z" fill="#FFABF9"/>
<path d="M769.487 218.467C769.175 221.502 769.752 224.713 770.738 227.604C772.79 233.619 774.354 236.173 778.61 240.97C778.867 241.259 779.155 241.491 779.452 241.731L785.048 246.048C785.224 246.184 785.416 246.304 785.601 246.424C786.274 246.841 786.996 247.169 787.717 247.489C790.892 249.507 794.323 250.604 798.002 250.765C801.682 251.589 805.354 251.421 809.033 250.268C812.633 249.411 815.767 247.761 818.437 245.319C821.451 243.373 823.824 240.786 825.564 237.567L828.353 230.968C829.668 226.075 829.668 221.174 828.353 216.281L825.564 209.682C823.102 205.533 819.8 202.226 815.639 199.767C814.709 199.351 813.803 198.919 812.97 198.326C814.837 199.767 816.697 201.209 818.565 202.642C818.132 202.306 817.763 201.946 817.427 201.513L821.748 207.103C821.571 206.839 821.419 206.583 821.283 206.294L824.072 212.893C823.96 212.597 823.872 212.325 823.816 212.012L824.802 219.356C824.77 219.036 824.77 218.763 824.802 218.443C824.946 214.639 824.153 211.091 822.421 207.8C821.307 204.372 819.399 201.409 816.705 198.911C814.204 196.22 811.23 194.314 807.807 193.201C804.512 191.471 800.961 190.678 797.153 190.822L789.802 191.807C785.12 193.121 781.047 195.491 777.6 198.911L773.279 204.5C770.778 208.809 769.519 213.462 769.503 218.443L769.487 218.467Z" fill="#FFABF9"/>
<path d="M811.502 250.484C825.972 250.484 839.825 237.775 839.16 222.856C838.486 207.888 827.007 195.227 811.502 195.227C797.033 195.227 783.18 207.936 783.845 222.856C784.511 237.775 795.998 250.484 811.502 250.484Z" fill="#FFABF9"/>
<path d="M818.95 249.555C833.42 249.555 847.273 236.846 846.607 221.927C845.934 206.959 834.454 194.298 818.95 194.298C804.48 194.298 790.627 207.007 791.293 221.927C791.966 236.894 803.446 249.555 818.95 249.555Z" fill="#FFABF9"/>
<path d="M827.64 249.243C842.11 249.243 855.962 236.534 855.297 221.614C854.624 206.647 843.144 193.985 827.64 193.985C813.17 193.985 799.317 206.695 799.983 221.614C800.648 236.534 812.136 249.243 827.64 249.243Z" fill="#FFABF9"/>
<path d="M834.462 247.073C848.932 247.073 862.785 234.364 862.119 219.444C861.446 204.476 849.966 191.815 834.462 191.815C819.992 191.815 806.139 204.524 806.805 219.444C807.47 234.364 818.958 247.073 834.462 247.073Z" fill="#FFABF9"/>
<path d="M837.877 240.562C852.347 240.562 866.2 227.853 865.534 212.933C864.861 197.966 853.381 185.304 837.877 185.304C823.407 185.304 809.554 198.014 810.22 212.933C810.885 227.853 822.373 240.562 837.877 240.562Z" fill="#FFABF9"/>
<path d="M796.295 235.292C810.765 235.292 824.618 222.583 823.952 207.664C823.279 192.696 811.799 180.035 796.295 180.035C781.825 180.035 767.972 192.744 768.638 207.664C769.303 222.583 780.791 235.292 796.295 235.292Z" fill="#FFABF9"/>
<path d="M762.16 200.264C776.63 200.264 790.483 187.555 789.817 172.635C789.152 157.716 777.664 145.006 762.16 145.006C747.69 145.006 733.838 157.716 734.503 172.635C735.176 187.603 746.656 200.264 762.16 200.264Z" fill="#FFABF9"/>
<path d="M750.993 187.859C765.463 187.859 779.316 175.15 778.65 160.23C777.977 145.263 766.497 132.602 750.993 132.602C736.523 132.602 722.67 145.311 723.336 160.23C724.009 175.198 735.489 187.859 750.993 187.859Z" fill="#FFABF9"/>
<path d="M738.575 178.249C753.045 178.249 766.898 165.54 766.233 150.62C765.567 135.701 754.079 122.991 738.575 122.991C724.105 122.991 710.253 135.701 710.918 150.62C711.591 165.588 723.071 178.249 738.575 178.249Z" fill="#FFABF9"/>
<path d="M736.403 168.335C750.873 168.335 764.726 155.625 764.06 140.706C763.395 125.786 751.907 113.077 736.403 113.077C721.941 113.077 708.08 125.778 708.746 140.706C709.419 155.674 720.899 168.335 736.403 168.335Z" fill="#FFABF9"/>
<path d="M738.263 157.483C752.733 157.483 766.585 144.774 765.92 129.855C765.255 114.935 753.767 102.226 738.263 102.226C723.793 102.226 709.94 114.935 710.605 129.855C711.279 144.822 722.759 157.483 738.263 157.483Z" fill="#FFABF9"/>
<path d="M744.476 148.186C758.946 148.186 772.798 135.477 772.133 120.557C771.468 105.637 759.98 92.9282 744.476 92.9282C730.006 92.9282 716.153 105.637 716.818 120.557C717.492 135.525 728.972 148.186 744.476 148.186Z" fill="#FFABF9"/>
<path d="M751.298 143.845C765.768 143.845 779.62 131.136 778.955 116.216C778.29 101.297 766.802 88.5876 751.298 88.5876C736.828 88.5876 722.975 101.297 723.64 116.216C724.314 131.184 735.794 143.845 751.298 143.845Z" fill="#FFABF9"/>
<path d="M764.02 138.263C778.49 138.263 792.343 125.554 791.677 110.635C791.004 95.667 779.524 83.0058 764.02 83.0058C749.55 83.0058 735.697 95.7151 736.363 110.635C737.036 125.602 748.516 138.263 764.02 138.263Z" fill="#FFABF9"/>
<path d="M768.06 128.653C782.53 128.653 796.383 115.944 795.718 101.025C795.052 86.1051 783.565 73.3958 768.06 73.3958C753.59 73.3958 739.738 86.1051 740.403 101.025C741.077 115.992 752.556 128.653 768.06 128.653Z" fill="#FFABF9"/>
<path d="M765.575 119.356C780.045 119.356 793.898 106.646 793.233 91.7269C792.567 76.8074 781.079 64.0981 765.575 64.0981C751.105 64.0981 737.253 76.8074 737.918 91.7269C738.591 106.695 750.071 119.356 765.575 119.356Z" fill="#FFABF9"/>
<path d="M768.365 108.809C782.835 108.809 796.688 96.0995 796.022 81.1799C795.357 66.2604 783.869 53.5511 768.365 53.5511C753.895 53.5511 740.042 66.2604 740.708 81.1799C741.381 96.1475 752.861 108.809 768.365 108.809Z" fill="#FFABF9"/>
<path d="M771.467 100.44C785.937 100.44 799.79 87.7308 799.125 72.8112C798.459 57.8917 786.972 45.1824 771.467 45.1824C756.997 45.1824 743.145 57.8917 743.81 72.8112C744.476 87.7308 755.963 100.44 771.467 100.44Z" fill="#FFABF9"/>
<path d="M785.657 89.869C789.144 88.5716 792.663 87.6907 796.343 87.1862L788.992 88.1712C792.687 87.7868 796.319 87.7948 800.015 88.2193L792.663 87.2342C795.646 87.6667 798.62 88.2433 801.417 89.3965L794.812 86.6096L795.726 87.1301L790.13 82.8136L790.932 83.4943L786.611 77.9045C787.108 78.4411 787.469 79.0577 787.693 79.7544C786.763 77.5521 785.833 75.3579 784.903 73.1556L785.144 74.1966L784.158 66.853C784.631 72.7712 783.412 77.2398 785.007 83.5184C786.795 90.5657 791.012 97.6611 796.503 102.458C802.267 107.495 808.953 111.315 816.473 113.077C822.862 114.575 829.516 114.855 836.025 115.592L828.674 114.607C831.576 115.007 834.302 115.6 837.019 116.697L830.414 113.91C831.792 114.575 833.035 115.328 834.278 116.224L828.682 111.908C830.165 113.117 831.44 114.415 832.634 115.904L828.313 110.314C829.436 111.868 830.365 113.47 831.167 115.207L828.377 108.609C829.267 110.819 829.844 113.013 830.173 115.376L829.187 108.032C829.387 110.29 829.347 112.461 829.099 114.711L830.085 107.367C829.66 110.058 828.963 112.605 827.977 115.151L830.766 108.552C827.143 116.929 820.056 123.072 816.336 131.376C811.655 141.843 809.105 152.823 813.779 163.874C819.359 177.072 831.56 183.535 845.613 183.607C852.411 183.647 859.554 182.694 866.039 180.628C874.08 178.057 882.666 174.269 888.839 168.295C898.867 158.597 902.659 143.181 904.8 129.751C906.002 122.167 906.042 115.336 902.01 108.464C898.651 102.73 892.077 97.2687 885.48 95.7711C878.401 94.1615 870.457 94.5058 864.172 98.558C858.504 102.21 852.563 108.12 851.465 115.071C850.247 122.743 848.467 130.519 845.445 137.711L848.234 131.112C847.906 131.849 847.497 132.537 847.016 133.186L851.337 127.596C850.864 128.205 850.327 128.757 849.726 129.238L855.321 124.921C853.261 126.475 851.008 127.62 848.659 128.685L855.265 125.899C851.786 127.332 848.251 128.325 844.531 128.926L851.882 127.941C848.699 128.349 845.549 128.501 842.358 128.205L849.71 129.19L848.587 128.926L855.193 131.713L854.191 131.176L859.786 135.493L859.057 134.692C860.5 136.558 861.943 138.416 863.378 140.282L862.929 139.304L865.719 145.903L865.502 144.806C865.831 147.257 866.16 149.699 866.488 152.15C866.424 151.389 866.448 150.628 866.576 149.867L865.59 157.211C865.895 155.642 866.312 154.176 866.881 152.686L864.091 159.285C867.033 152.582 872.356 147.489 876.092 141.283C883.692 128.645 885.792 114.423 883.411 100.048C881.471 88.3714 874.216 77.8244 864.989 70.705C859.642 66.5807 853.614 63.3854 846.936 61.9439C840.258 60.5024 833.893 60.2701 827.375 59.4773L834.727 60.4623C832.322 60.102 830.037 59.5974 827.744 58.7886L834.35 61.5755C832.77 60.8868 831.392 60.126 830.013 59.1009L835.608 63.4174C834.678 62.6086 833.917 61.8238 833.139 60.8628L837.46 66.4526C836.995 65.8279 836.594 65.1552 836.266 64.4505L839.055 71.0494C838.599 69.8962 838.342 68.9272 838.174 67.6939L839.16 75.0375C839.112 73.0434 839.456 71.1054 839.52 69.1274C839.729 63.1051 838.31 56.6263 835.224 51.4049C829.989 42.5397 821.379 36.9819 811.438 34.6995C798.227 31.6643 783.741 31.8325 770.946 36.6055C764.044 39.1842 758.248 42.7639 754.416 49.2987C750.945 55.2169 749.478 63.946 751.626 70.5849C755.907 83.7906 771.139 95.2986 785.649 89.885L785.657 89.869Z" fill="#FFABF9"/>
<path d="M849.71 109.553C852.74 110.394 855.682 111.395 858.584 112.605L851.978 109.818C856.091 111.628 859.939 113.806 863.554 116.473L857.959 112.156C861.037 114.551 863.787 117.209 866.248 120.221C864.805 118.355 863.362 116.497 861.927 114.631C864.276 117.682 866.208 120.909 867.739 124.441L864.949 117.842C866.288 121.238 867.106 124.673 867.611 128.285L866.625 120.941C868.076 133.835 868.276 147.481 866.721 160.366L867.707 153.023C866.937 158.605 865.767 164.114 865.021 169.704C863.987 177.424 864.035 184.207 865.935 191.967C869.374 206.014 886.025 215.768 899.958 211.267C914.556 206.551 922.965 192.328 919.278 177.28C919.021 176.367 918.829 175.446 918.7 174.509L919.687 181.853C919.382 178.994 919.502 176.231 919.839 173.38L918.853 180.724C920.673 168.247 922.989 156.05 922.917 143.381C922.845 131.384 922.981 118.307 919.566 106.743C911.967 80.9717 889.696 63.2733 864.42 56.274C850.487 52.414 833.708 61.0389 830.398 75.5741C827.063 90.1973 834.791 105.429 849.718 109.562L849.71 109.553Z" fill="#FFABF9"/>
<path d="M872.637 230.952C887.107 230.952 900.96 218.243 900.294 203.323C899.621 188.356 888.141 175.694 872.637 175.694C858.167 175.694 844.314 188.404 844.98 203.323C845.653 218.291 857.133 230.952 872.637 230.952Z" fill="#FFABF9"/>
<path d="M879.459 232.81C893.929 232.81 907.782 220.101 907.117 205.181C906.443 190.214 894.963 177.552 879.459 177.552C864.989 177.552 851.137 190.262 851.802 205.181C852.475 220.149 863.955 232.81 879.459 232.81Z" fill="#FFABF9"/>
<path d="M872.324 231.569C886.794 231.569 900.647 218.859 899.982 203.94C899.308 188.972 887.829 176.311 872.324 176.311C857.854 176.311 844.002 189.02 844.667 203.94C845.34 218.907 856.82 231.569 872.324 231.569Z" fill="#FFABF9"/>
<path d="M888.462 232.81C902.932 232.81 916.784 220.101 916.119 205.181C915.446 190.214 903.966 177.552 888.462 177.552C873.992 177.552 860.139 190.262 860.805 205.181C861.478 220.149 872.958 232.81 888.462 232.81Z" fill="#FFABF9"/>
<path d="M898.699 231.264C913.169 231.264 927.022 218.555 926.356 203.636C925.683 188.668 914.203 176.007 898.699 176.007C884.229 176.007 870.376 188.716 871.042 203.636C871.715 218.603 883.195 231.264 898.699 231.264Z" fill="#FFABF9"/>
<path d="M905.217 230.335C919.687 230.335 933.539 217.626 932.874 202.707C932.201 187.739 920.721 175.078 905.217 175.078C890.747 175.078 876.894 187.787 877.559 202.707C878.233 217.674 889.712 230.335 905.217 230.335Z" fill="#FFABF9"/>
<path d="M911.117 229.711C925.587 229.711 939.44 217.001 938.774 202.082C938.101 187.114 926.621 174.453 911.117 174.453C896.647 174.453 882.794 187.162 883.46 202.082C884.133 217.05 895.613 229.711 911.117 229.711Z" fill="#FFABF9"/>
<path d="M915.766 229.094C930.236 229.094 944.089 216.385 943.424 201.465C942.75 186.498 931.271 173.836 915.766 173.836C901.296 173.836 887.444 186.546 888.109 201.465C888.782 216.433 900.262 229.094 915.766 229.094Z" fill="#FFABF9"/>
<path d="M918.877 228.782C933.347 228.782 947.2 216.072 946.534 201.153C945.861 186.185 934.381 173.524 918.877 173.524C904.407 173.524 890.554 186.233 891.22 201.153C891.893 216.121 903.373 228.782 918.877 228.782Z" fill="#FFABF9"/>
<path d="M919.182 221.654C933.652 221.654 947.504 208.945 946.839 194.026C946.165 179.058 934.686 166.397 919.182 166.397C904.712 166.397 890.859 179.106 891.524 194.026C892.198 208.993 903.677 221.654 919.182 221.654Z" fill="#FFABF9"/>
<path d="M919.807 215.456C934.277 215.456 948.129 202.747 947.464 187.827C946.791 172.859 935.311 160.198 919.807 160.198C905.337 160.198 891.484 172.908 892.15 187.827C892.823 202.795 904.303 215.456 919.807 215.456Z" fill="#FFABF9"/>
<path d="M920.111 208.633C934.581 208.633 948.434 195.923 947.769 181.004C947.095 166.036 935.616 153.375 920.111 153.375C905.642 153.375 891.789 166.084 892.454 181.004C893.128 195.972 904.607 208.633 920.111 208.633Z" fill="#FFABF9"/>
<path d="M917.009 199.952C931.479 199.952 945.332 187.242 944.666 172.323C943.993 157.355 932.513 144.694 917.009 144.694C902.539 144.694 888.686 157.403 889.352 172.323C890.025 187.29 901.505 199.952 917.009 199.952Z" fill="#FFABF9"/>
<path d="M913.907 192.824C928.377 192.824 942.229 180.115 941.564 165.195C940.891 150.228 929.411 137.567 913.907 137.567C899.437 137.567 885.584 150.276 886.249 165.195C886.923 180.163 898.403 192.824 913.907 192.824Z" fill="#FFABF9"/>
<path d="M868.605 96.7241C883.075 96.7241 896.927 84.0149 896.262 69.0953C895.589 54.1277 884.109 41.4665 868.605 41.4665C854.135 41.4665 840.282 54.1758 840.947 69.0953C841.621 84.0629 853.101 96.7241 868.605 96.7241Z" fill="#FFABF9"/>
<path d="M881.327 102.61C895.797 102.61 909.65 89.901 908.984 74.9815C908.311 60.0139 896.831 47.3527 881.327 47.3527C866.857 47.3527 853.004 60.0619 853.67 74.9815C854.343 89.9491 865.823 102.61 881.327 102.61Z" fill="#FFABF9"/>
<path d="M894.667 105.093C909.137 105.093 922.989 92.3836 922.324 77.4641C921.651 62.4965 910.171 49.8353 894.667 49.8353C880.197 49.8353 866.344 62.5445 867.009 77.4641C867.683 92.4317 879.163 105.093 894.667 105.093Z" fill="#FFABF9"/>
<path d="M904.287 105.093C918.757 105.093 932.609 92.3836 931.944 77.4641C931.271 62.4965 919.791 49.8353 904.287 49.8353C889.817 49.8353 875.964 62.5445 876.629 77.4641C877.303 92.4317 888.783 105.093 904.287 105.093Z" fill="#FFABF9"/>
<path d="M912.047 105.405C926.517 105.405 940.369 92.6959 939.704 77.7764C939.031 62.8088 927.551 50.1476 912.047 50.1476C897.577 50.1476 883.724 62.8568 884.389 77.7764C885.063 92.744 896.543 105.405 912.047 105.405Z" fill="#FFABF9"/>
<path d="M920.424 110.05C934.894 110.05 948.747 97.3408 948.081 82.4212C947.408 67.4536 935.928 54.7924 920.424 54.7924C905.954 54.7924 892.101 67.5017 892.767 82.4212C893.44 97.3888 904.92 110.05 920.424 110.05Z" fill="#FFABF9"/>
<path d="M926.012 115.015C940.482 115.015 954.334 102.306 953.669 87.3864C952.996 72.4188 941.516 59.7576 926.012 59.7576C911.542 59.7576 897.689 72.4668 898.354 87.3864C899.028 102.354 910.508 115.015 926.012 115.015Z" fill="#FFABF9"/>
<path d="M928.801 121.518C943.271 121.518 957.124 108.809 956.459 93.8892C955.785 78.9216 944.306 66.2604 928.801 66.2604C914.331 66.2604 900.479 78.9696 901.144 93.8892C901.818 108.857 913.297 121.518 928.801 121.518Z" fill="#FFABF9"/>
<path d="M929.731 126.483C944.201 126.483 958.054 113.774 957.389 98.8543C956.715 83.8867 945.235 71.2256 929.731 71.2256C915.261 71.2256 901.409 83.9348 902.074 98.8543C902.747 113.822 914.227 126.483 929.731 126.483Z" fill="#FFABF9"/>
<path d="M927.559 134.235C942.029 134.235 955.882 121.526 955.216 106.606C954.543 91.6388 943.063 78.9776 927.559 78.9776C913.089 78.9776 899.236 91.6869 899.902 106.606C900.575 121.574 912.055 134.235 927.559 134.235Z" fill="#FFABF9"/>
<path d="M925.082 141.05C939.552 141.05 953.404 128.341 952.739 113.422C952.066 98.4539 940.586 85.7927 925.082 85.7927C910.612 85.7927 896.759 98.502 897.424 113.422C898.098 128.389 909.578 141.05 925.082 141.05Z" fill="#FFABF9"/>
<path d="M922.597 146.944C937.067 146.944 950.919 134.235 950.254 119.316C949.581 104.348 938.101 91.6869 922.597 91.6869C908.127 91.6869 894.274 104.396 894.939 119.316C895.613 134.283 907.092 146.944 922.597 146.944Z" fill="#FFABF9"/>
<path d="M918.877 151.285C933.347 151.285 947.2 138.576 946.534 123.656C945.861 108.689 934.381 96.0274 918.877 96.0274C904.407 96.0274 890.554 108.737 891.22 123.656C891.893 138.624 903.373 151.285 918.877 151.285Z" fill="#FFABF9"/>
<path d="M917.939 153.143C932.409 153.143 946.262 140.434 945.596 125.514C944.923 110.547 933.443 97.8853 917.939 97.8853C903.469 97.8853 889.616 110.595 890.282 125.514C890.955 140.482 902.435 153.143 917.939 153.143Z" fill="#FFABF9"/>
<path d="M823.295 93.3126C837.765 93.3126 851.618 80.6033 850.952 65.6838C850.279 50.7162 838.799 38.055 823.295 38.055C808.825 38.055 794.972 50.7642 795.638 65.6838C796.303 80.6033 807.791 93.3126 823.295 93.3126Z" fill="#FFABF9"/>
<path d="M786.058 83.7026C800.528 83.7026 814.38 70.9933 813.715 56.0738C813.05 41.1542 801.562 28.445 786.058 28.445C771.588 28.445 757.735 41.1542 758.4 56.0738C759.066 70.9933 770.554 83.7026 786.058 83.7026Z" fill="#FFABF9"/>
<path d="M795.678 78.4331C810.148 78.4331 824 65.7238 823.335 50.8043C822.67 35.8847 811.182 23.1755 795.678 23.1755C781.208 23.1755 767.355 35.8847 768.02 50.8043C768.686 65.7238 780.174 78.4331 795.678 78.4331Z" fill="#FFABF9"/>
<path d="M803.438 75.0215C817.908 75.0215 831.76 62.3123 831.095 47.3927C830.43 32.4732 818.942 19.7639 803.438 19.7639C788.968 19.7639 775.115 32.4732 775.78 47.3927C776.446 62.3123 787.934 75.0215 803.438 75.0215Z" fill="#FFABF9"/>
<path d="M807.775 72.5389C822.245 72.5389 836.097 59.8297 835.432 44.9101C834.759 29.9425 823.279 17.2813 807.775 17.2813C793.305 17.2813 779.452 29.9906 780.117 44.9101C780.791 59.8777 792.271 72.5389 807.775 72.5389Z" fill="#FFABF9"/>
<path d="M814.918 74.0925C829.387 74.0925 843.24 61.3833 842.575 46.4638C841.901 31.4962 830.422 18.835 814.918 18.835C800.448 18.835 786.595 31.5442 787.26 46.4638C787.926 61.3833 799.413 74.0925 814.918 74.0925Z" fill="#FFABF9"/>
<path d="M820.192 76.8794C834.662 76.8794 848.515 64.1702 847.85 49.2507C847.176 34.2831 835.697 21.6219 820.192 21.6219C805.722 21.6219 791.87 34.3311 792.535 49.2507C793.201 64.1702 804.688 76.8794 820.192 76.8794Z" fill="#FFABF9"/>
<path d="M823.608 80.9157C838.078 80.9157 851.93 68.2064 851.265 53.2869C850.591 38.3193 839.112 25.6581 823.608 25.6581C809.138 25.6581 795.285 38.3673 795.95 53.2869C796.616 68.2064 808.103 80.9157 823.608 80.9157Z" fill="#FFABF9"/>
<path d="M824.537 81.8446C839.007 81.8446 852.86 69.1354 852.195 54.2158C851.521 39.2482 840.042 26.587 824.537 26.587C810.067 26.587 796.215 39.2963 796.88 54.2158C797.545 69.1354 809.033 81.8446 824.537 81.8446Z" fill="#FFABF9"/>
<path d="M790.403 70.9533C804.632 82.6855 817.763 95.691 831.039 108.48C852.612 129.775 874.794 152.302 894.667 175.118C858.151 142.508 823.575 106.911 790.403 70.9613V70.9533Z" fill="#F90089"/>
<path d="M797.818 85.4804C813.194 95.675 827.608 107.247 842.134 118.587C865.799 137.527 890.21 157.628 912.351 178.257C872.645 149.619 834.55 117.794 797.818 85.4804Z" fill="#F90089"/>
<path d="M848.21 127.869C842.631 144.446 835.224 160.366 827.888 176.223C820.369 192.015 812.553 207.648 803.622 222.727C815.936 190.045 831.376 158.452 848.21 127.869Z" fill="#F90089"/>
<path d="M865.141 82.3011C859.907 99.9755 853.068 117.145 846.495 134.347C835.336 162.513 823.271 191.727 810.043 218.931C825.772 172.595 845.02 126.876 865.133 82.2931L865.141 82.3011Z" fill="#F90089"/>
<path d="M851.906 86.065C849.477 104.34 845.389 122.351 841.565 140.37C834.911 169.92 827.528 200.648 818.677 229.575C827.031 181.364 838.951 133.21 851.914 86.057L851.906 86.065Z" fill="#F90089"/>
<path d="M877.215 78.6012C869.35 95.2746 859.979 111.203 850.856 127.212C835.536 153.351 819.166 180.395 801.947 205.269C824.553 161.864 850.543 119.596 877.215 78.6012Z" fill="#F90089"/>
<path d="M812.344 205.269C817.499 187.571 824.249 170.369 830.75 153.135C841.781 124.921 853.71 95.651 866.809 68.3826C851.297 114.791 832.257 160.599 812.344 205.269Z" fill="#F90089"/>
<path d="M758.793 169.936C771.499 161.56 785.176 154.729 798.78 147.961C812.488 141.347 826.317 135.036 840.659 129.855C814.693 145.639 786.996 158.677 758.785 169.936H758.793Z" fill="#F90089"/>
<path d="M809.691 61.1911C820.168 76.3589 829.251 92.4557 838.526 108.376C853.453 134.74 868.637 162.465 881.519 189.837C855.305 148.506 831.776 104.829 809.691 61.1911Z" fill="#F90089"/>
<path d="M908.303 113.614C890.779 119.372 872.757 123.52 854.848 127.909C825.315 134.764 794.395 141.475 764.477 146.088C811.566 132.65 860.163 122.447 908.303 113.614Z" fill="#F90089"/>
<path d="M840.659 128.341C830.341 139.096 818.717 148.546 807.165 157.924C795.477 167.182 783.605 176.159 770.978 184.151C792.375 163.474 816.072 145.095 840.651 128.341H840.659Z" fill="#F90089"/>
<path d="M746.472 125.987C764.862 124.497 783.356 124.689 801.794 124.625C832.113 124.889 863.747 125.61 893.913 128.141C844.98 130.167 795.349 128.685 746.472 125.987Z" fill="#F90089"/>
<path d="M798.042 66.7809C810.524 80.3551 821.748 95.0343 833.147 109.513C851.593 133.554 870.473 158.917 887.035 184.231C855.337 146.928 825.98 106.927 798.05 66.7729L798.042 66.7809Z" fill="#F90089"/>
<path d="M835.135 123.032C836.699 138.351 836.41 153.816 836.113 169.192C835.64 184.584 834.831 199.944 832.779 215.232C830.798 184.552 832.073 153.607 835.143 123.032H835.135Z" fill="#F90089"/>
<path d="M905.81 107.303C888.478 113.63 870.609 118.371 852.852 123.352C823.559 131.176 792.88 138.896 763.13 144.494C809.755 129.518 857.983 117.722 905.81 107.311V107.303Z" fill="#F90089"/>
<path d="M835.296 128.141C837.789 141.371 838.55 154.865 839.24 168.287C839.761 181.733 839.961 195.163 838.903 208.617C834.951 181.997 834.141 155.001 835.296 128.149V128.141Z" fill="#F90089"/>
<path d="M907.125 186.938C892.663 175.486 879.275 162.745 865.751 150.22C843.761 129.358 821.138 107.271 800.816 84.8558C837.965 116.737 873.238 151.645 907.125 186.938Z" fill="#F90089"/>
<path d="M878.513 84.9038C869.134 100.776 858.327 115.768 847.762 130.864C830.085 155.473 811.27 180.884 791.822 204.06C818.357 162.937 848.146 123.256 878.513 84.8958V84.9038Z" fill="#F90089"/>
<path d="M837.877 127.869C822.886 125.154 808.264 120.645 793.738 116.136C779.244 111.451 764.87 106.47 750.913 100.304C780.614 106.823 809.683 116.529 837.877 127.869Z" fill="#F90089"/>
<path d="M899.477 92.8481C884.83 104.06 869.19 113.91 853.734 123.952C828.113 140.153 801.145 156.675 774.418 170.889C814.437 142.684 856.949 117.049 899.477 92.8481Z" fill="#F90089"/>
<path d="M826.445 65.6838C831.416 75.7903 834.855 86.4494 838.166 97.1646C841.34 107.912 844.186 118.731 845.829 129.855C841.124 119.636 837.58 109.033 834.326 98.3098C831.111 87.5866 828.393 76.7193 826.445 65.6838Z" fill="#F90089"/>
<path d="M791.613 92.4557C803.967 97.8533 815.551 104.813 827.047 111.804C838.462 118.939 849.685 126.347 860.219 134.78C835.969 123.056 813.186 108.528 791.613 92.4557Z" fill="#F90089"/>
<path d="M843 92.8481C845.453 107.327 846.679 121.902 847.609 136.526C848.435 151.157 848.94 165.772 848.218 180.443C845.757 165.972 844.531 151.389 843.609 136.766C842.791 122.135 842.286 107.519 843 92.8481Z" fill="#F90089"/>
<path d="M851.313 133.442C844.01 131.857 837.148 129.15 830.382 126.131C823.648 123.024 817.098 119.644 811.11 115.175C818.421 116.753 825.275 119.46 832.041 122.487C838.767 125.602 845.316 128.982 851.313 133.442Z" fill="#F90089"/>
<path d="M868.765 124.313C857.782 128.918 846.439 132.361 834.991 135.509C823.511 138.56 811.983 141.299 800.167 142.836C811.15 138.215 822.493 134.78 833.941 131.64C845.421 128.597 856.948 125.858 868.765 124.313Z" fill="#F90089"/>
<path d="M841.693 113.101C838.045 121.998 833.34 130.295 828.337 138.456C823.263 146.568 817.932 154.48 811.575 161.704C815.214 152.799 819.928 144.51 824.93 136.349C830.013 128.237 835.344 120.333 841.693 113.101Z" fill="#F90089"/>
<path d="M838.238 91.2224C842.31 102.41 845.204 113.894 847.794 125.482C850.287 137.086 852.467 148.73 853.437 160.599C849.357 149.411 846.463 137.927 843.881 126.339C841.396 114.735 839.216 103.091 838.238 91.2224Z" fill="#F90089"/>
<path d="M846.423 90.4776C847.096 105.541 846.551 120.557 845.693 135.581C844.739 150.596 843.465 165.572 840.963 180.443C840.282 165.38 840.827 150.364 841.693 135.34C842.655 120.325 843.93 105.349 846.423 90.4776Z" fill="#F90089"/>
<path d="M842.671 129.062C840.13 136.966 836.498 144.334 832.562 151.589C828.546 158.797 824.265 165.812 818.942 172.187C821.475 164.283 825.107 156.915 829.051 149.659C833.075 142.452 837.356 135.444 842.671 129.062Z" fill="#F90089"/>
<path d="M852.002 104.933C846.944 115.712 840.835 125.858 834.454 135.861C827.985 145.815 821.267 155.569 813.539 164.619C818.589 153.84 824.698 143.693 831.087 133.691C837.556 123.744 844.282 113.99 852.002 104.933Z" fill="#F90089"/>
<path d="M805.827 95.7551C818.653 104.428 830.406 114.615 842.078 124.745C853.654 135.028 864.989 145.543 875.475 156.971C850.527 138.72 827.463 117.802 805.827 95.7471V95.7551Z" fill="#F90089"/>
<path d="M849.509 124.313C848.443 134.307 846.19 144.029 843.625 153.712C840.963 163.362 838.013 172.891 833.877 182.061C834.927 172.059 837.188 162.336 839.761 152.662C842.422 143.012 845.389 133.482 849.509 124.313Z" fill="#F90089"/>
<path d="M819.206 63.8258C827.856 80.1068 835.007 97.1406 842.374 114.03C854.151 141.947 866.015 171.242 875.643 199.92C854.399 155.834 836.089 109.73 819.206 63.8338V63.8258Z" fill="#F90089"/>
<path d="M830.357 116.216C842.935 126.483 854.279 138.183 865.574 149.819C876.75 161.592 887.66 173.588 897.657 186.41C873.318 165.003 851.096 141.098 830.365 116.216H830.357Z" fill="#F90089"/>
<path d="M810.051 109.393C824.93 114.03 839.224 120.429 853.429 126.795C867.579 133.338 881.568 140.169 895.003 148.122C865.647 137.775 837.332 124.329 810.051 109.393Z" fill="#F90089"/>
<path d="M801.105 54.5041C811.27 68.8471 820.08 84.111 829.067 99.2147C843.537 124.225 858.239 150.54 870.673 176.575C845.22 137.455 822.421 95.9954 801.105 54.5121V54.5041Z" fill="#F90089"/>
<path d="M857.951 95.8832C854.015 110.026 848.932 123.752 843.553 137.382C838.077 150.973 832.322 164.427 825.435 177.4C829.363 163.249 834.446 149.531 839.833 135.901C845.316 122.311 851.072 108.857 857.951 95.8832Z" fill="#F90089"/>
<path d="M858.335 133.442C851.032 131.857 844.17 129.15 837.404 126.131C830.67 123.024 824.12 119.644 818.132 115.175C825.443 116.753 832.297 119.46 839.063 122.487C845.789 125.602 852.339 128.982 858.335 133.442Z" fill="#F90089"/>
<path d="M876.084 117.45C869.631 121.222 862.745 123.856 855.714 126.211C848.651 128.469 841.533 130.407 834.101 131.168C840.547 127.388 847.433 124.753 854.471 122.407C861.534 120.157 868.653 118.219 876.084 117.45Z" fill="#F90089"/>
<g opacity="0.44">
<path d="M737.269 106.743C743.161 101.561 748.748 97.0604 750.344 88.8919C751.025 85.4003 751.017 81.8366 751.787 78.353C752.661 74.3968 754.055 70.6009 755.883 66.9891C761.134 56.6263 768.397 47.4167 778.073 40.8739C788.735 33.6744 800.423 30.399 813.29 30.7273C821.178 30.9275 828.602 32.5212 833.781 38.9759C837.292 43.3485 838.991 48.9623 842.863 53.0786C846.816 57.283 852.86 58.8526 858.167 56.346C862.536 54.2879 866.176 51.9815 871.042 53.3029C877.591 55.0887 883.684 57.8836 890.41 59.181C896.23 60.3021 902.082 60.134 907.918 60.9348C922.14 62.8969 935.03 69.0393 941.965 82.0528C943.48 84.9038 943.76 85.5364 944.738 88.8439C945.989 93.0803 946.446 97.3888 946.286 101.793C946.029 108.649 944.185 115.616 941.043 121.718C938.574 126.515 935.375 129.799 931.551 133.939C929.202 136.486 926.028 138.736 924.328 141.763C921.041 147.625 924.48 153.607 927.791 158.508C931.102 163.41 933.635 167.55 934.453 173.156C935.415 179.731 934.974 186.602 934.838 193.217C934.734 198.438 935.038 205.894 932.954 210.17C932.794 210.507 932.601 210.827 932.401 211.147C931.519 212.573 932.794 210.755 932.176 211.5C931.399 212.437 930.501 213.141 929.467 213.766C926.036 215.84 922.084 217.29 918.236 218.355C910.828 220.405 902.972 221.246 895.364 222.215C890.41 222.848 885.335 223.432 880.373 222.639C874.585 221.718 869.006 218.851 863.137 218.547C857.269 218.243 852.547 221.63 850.247 226.868C847.433 233.282 843.144 235.004 836.659 236.678C824.642 239.777 812.464 240.33 800.079 239.825C794.563 239.601 790.924 238.784 787.372 234.187C784.07 229.919 782.426 224.457 781.16 219.292C778.658 209.057 783.268 192.544 769.014 189.741C766.369 189.22 763.643 189.533 760.998 189.06C757.086 188.364 753.839 186.241 751.001 183.567C746.047 178.898 741.181 174.213 735.802 170.032C734.118 168.727 732.403 167.462 730.671 166.213C730.15 165.836 729.629 165.468 729.116 165.083C730.174 165.884 728.547 164.603 728.282 164.363C727.761 163.89 727.288 163.386 726.815 162.873C726.663 162.705 726.158 162.08 726.831 162.937C726.631 162.673 726.43 162.401 726.246 162.12C724.218 159.117 722.622 155.89 721.548 152.43C718.173 141.555 719.376 129.895 725.3 120.293C728.498 115.111 732.771 110.795 737.285 106.743C742.664 101.905 734.711 94.0013 729.348 98.8143C718.798 108.288 710.718 119.708 708.85 134.019C707.23 146.368 710.317 160.366 718.317 170.097C720.33 172.547 722.887 174.349 725.444 176.199C730.294 179.707 734.8 183.599 739.153 187.715C745.229 193.465 751.017 198.871 759.675 200.136C761.992 200.472 765.495 199.832 767.595 200.905C768.774 201.505 768.533 202.33 768.614 204.036C769.207 217.266 770.457 231.104 779.212 241.827C783.516 247.097 788.992 249.996 795.678 250.733C803.79 251.622 812.248 251.445 820.369 250.765C825.539 250.332 830.726 249.635 835.777 248.45C842.222 246.945 849.028 245.359 854.127 240.866C856.949 238.376 858.6 235.397 860.155 232.057C861.149 229.919 861.39 229.551 863.153 229.759C864.917 229.967 867.915 231.12 870.016 231.721C873.92 232.85 877.904 233.667 881.96 234.075C887.46 234.62 893.047 233.755 898.483 233.018C906.483 231.937 914.78 231.136 922.54 228.79C929.515 226.676 937.62 223.568 941.828 217.258C944.867 212.701 945.444 206.895 945.805 201.585C946.35 193.561 946.502 185.312 946.061 177.28C945.749 171.586 944.835 166.1 942.366 160.919C940.77 157.572 938.622 154.576 936.586 151.485C935.824 150.324 935.207 149.067 934.445 147.921C933.972 147.201 934.213 147.249 934.221 147.121C934.189 147.865 933.716 147.697 934.421 147.049C934.926 146.584 935.415 146.088 935.904 145.607C936.586 144.934 937.275 144.254 937.94 143.565C939.488 141.955 940.987 140.281 942.47 138.608C951.961 127.941 957.421 114.935 957.565 100.472C957.709 85.9929 951.392 71.4738 940.193 62.1441C933.579 56.6343 925.964 53.8074 917.747 51.6131C911.045 49.8272 904.455 49.7071 897.625 49.0184C884.397 47.681 871.948 38.071 858.608 43.5487C854.271 45.3265 852.74 48.3056 849.838 43.7489C846.166 37.9829 843.481 31.8885 838.077 27.4039C825.411 16.8969 804.768 17.6897 789.898 22.6149C764.99 30.8635 743.209 54.4721 740.082 80.9236C739.658 84.5034 739.642 88.0911 737.533 91.2144C735.425 94.3376 732.082 96.4358 729.364 98.8223C723.937 103.603 731.897 111.508 737.301 106.751L737.269 106.743Z" fill="white"/>
</g>
<path d="M773.977 82.7976C754.272 82.4292 734.623 91.0782 722.446 106.606C708.954 123.576 707.27 149.235 718.277 167.758C719.4 169.432 720.626 170.905 722.326 171.955C730.943 177.624 738.864 184.648 744.9 193.024C745.782 194.074 747.001 194.922 748.187 195.691L748.548 195.931L748.933 196.132C750.159 196.828 751.61 197.413 752.933 197.894C754.264 198.278 755.875 198.694 757.254 198.879C771.355 200.793 787.268 194.722 796.463 183.831C799.646 180.067 802.219 175.799 804.175 171.266C802.532 175.943 800.183 180.403 797.121 184.367C790.443 193.201 780.093 198.806 769.295 200.913C762.072 202.186 754.208 202.026 747.61 198.518C747.113 198.294 746.383 197.781 745.919 197.477C743.698 196.22 741.886 193.873 740.427 191.911C738.19 189.044 735.609 186.506 732.908 184.055C728.827 180.339 724.402 177.048 719.784 174.021C716.041 171.194 713.828 166.837 712.072 162.649C704.665 143.741 707.303 120.773 720.506 105.053C733.284 89.4686 753.975 81.0918 773.985 82.7976H773.977Z" fill="black"/>
<path d="M934.285 147.849C946.149 136.125 953.941 120.861 956.01 104.308C957.773 92.8481 954.719 80.7955 947.368 71.8182C941.548 64.7228 934.092 58.5644 925.771 54.5522C921.675 52.5901 917.209 51.1006 912.696 50.7642C908.094 50.54 903.036 51.5651 898.33 50.7562C893.464 50.0435 888.694 48.7061 884.245 46.6239C880.95 45.1023 878.08 43.3805 874.641 42.5957C869.086 41.5627 862.961 41.7308 857.742 43.7569C848.675 47.2646 845.829 57.9477 846.383 66.8931C846.615 71.626 847.705 76.2868 849.253 80.7715C845.493 72.0104 843.761 61.8478 847.04 52.5982C851.217 40.7378 864.011 38.3033 875.178 40.0651C878.786 40.7458 882.201 42.6438 885.399 44.0693C889.616 45.9753 894.146 47.1445 898.715 47.7451C903.501 48.4658 907.974 47.4087 912.896 47.641C917.963 48.0014 922.709 49.571 927.158 51.6692C944.386 60.2381 959.753 77.1277 958.968 97.3808C958.23 116.745 948.875 135.252 934.285 147.857V147.849Z" fill="black"/>
<path d="M738.046 91.6068C738.848 67.1413 751.37 42.6278 772.63 29.8144C778.714 26.1866 784.743 22.9593 791.188 20.0122C800.888 15.4154 812.464 14.7347 822.581 18.2023C836.161 22.4147 847.112 33.4502 851.505 46.8401C845.918 34.235 835.143 24.2646 821.836 20.5968C807.23 16.3604 796.111 20.2605 783.276 27.516C777.167 30.6793 771.243 33.9627 765.968 38.3593C750.007 51.4129 740.684 71.3857 738.038 91.6148L738.046 91.6068Z" fill="black"/>
<path d="M861.093 229.502C877.439 233.947 893.544 232.89 910.01 229.815C917.939 228.373 926.26 227.629 933.483 223.929C936.938 222.111 939.672 219.3 941.716 216.008C947.833 205.301 946.021 192.592 945.043 180.62C944.241 170.601 942.742 160.238 936.465 152.086C932.802 147.289 928.04 143.357 922.605 140.634C915.341 136.958 907.116 135.212 898.859 134.996C907.116 134.499 915.574 135.813 923.286 139.216C930.998 142.668 937.756 148.498 941.852 155.978C946.053 163.402 947.191 172.043 948.065 180.331C949.228 192.52 951.104 206.398 944.386 217.642C942.061 221.358 938.838 224.633 934.894 226.611C927.262 230.375 918.628 231.088 910.363 232.289C893.392 234.884 877.511 235.349 861.085 229.518L861.093 229.502Z" fill="black"/>
<path d="M768.349 199.952C768.614 203.956 768.83 207.968 769.119 211.956C769.704 218.811 770.129 225.899 773.103 232.169C775.267 236.558 778.586 240.29 782.081 243.661C784.895 246.344 788.094 248.57 791.653 249.86C795.285 251.293 799.085 251.101 802.957 250.869C814.453 249.98 827.335 249.812 838.326 246.296C844.298 244.454 850.463 242.404 855.073 238.135C855.979 237.134 856.74 236.149 857.325 234.804C859.017 231.256 860.5 227.572 861.694 223.825C862.512 221.038 863.354 218.179 863.683 215.28C864.115 210.355 863.883 205.389 863.586 200.424C863.097 192.448 862.087 184.496 860.909 176.559C863.666 188.3 865.727 200.272 865.967 212.389C866.007 220.525 863.097 228.63 859.867 236.005C859.281 237.447 858.223 238.984 857.149 240.154C852.259 244.967 845.573 247.321 839.216 249.299C827.536 253.063 815.23 253.111 803.117 253.888C799.021 254.088 794.555 254.12 790.667 252.478C786.683 250.957 783.228 248.37 780.342 245.439C776.742 241.747 773.416 237.759 771.339 233.01C768.493 226.403 768.389 219.028 768.237 211.988C768.197 207.968 768.277 203.956 768.349 199.944V199.952Z" fill="black"/>
<path d="M845.91 112.26C840.106 111.011 835.031 117.442 834.382 118.275C831.656 121.734 831.384 124.793 830.197 131.016C826.766 149.035 823.439 152.839 826.221 155.786C828.963 158.693 835.336 158.3 839.28 155.786C843.649 152.999 842.479 149.227 847.649 138.56C851.73 130.135 854.022 129.262 853.974 124.801C853.926 119.852 851.04 113.365 845.91 112.26Z" fill="#FEB000" stroke="black" stroke-width="2" stroke-miterlimit="10"/>
<defs>
<filter id="filter0_d_25_138" x="5.25" y="54.25" width="691.869" height="189.5" filterUnits="userSpaceOnUse" color-interpolation-filters="sRGB">
<feFlood flood-opacity="0" result="BackgroundImageFix"/>
<feColorMatrix in="SourceAlpha" type="matrix" values="0 0 0 0 0 0 0 0 0 0 0 0 0 0 0 0 0 0 127 0" result="hardAlpha"/>
<feOffset dy="4"/>
<feGaussianBlur stdDeviation="2"/>
<feComposite in2="hardAlpha" operator="out"/>
<feColorMatrix type="matrix" values="0 0 0 0 0 0 0 0 0 0 0 0 0 0 0 0 0 0 0.25 0"/>
<feBlend mode="normal" in2="BackgroundImageFix" result="effect1_dropShadow_25_138"/>
<feBlend mode="normal" in="SourceGraphic" in2="effect1_dropShadow_25_138" result="shape"/>
</filter>
</defs>
</svg>
