<?xml version="1.0" encoding="UTF-8"?>
<svg xmlns="http://www.w3.org/2000/svg" viewBox="0 0 313.1 297.19">
  <defs>
    <style>
      .cls-1 {
        fill: #fff;
      }

      .cls-2 {
        fill: #f90089;
      }

      .cls-3 {
        fill: #ffabf9;
      }

      .cls-4 {
        fill: #feb000;
        stroke: #000;
        stroke-miterlimit: 10;
        stroke-width: 2px;
      }

      .cls-5 {
        opacity: .44;
      }
    </style>
  </defs>
  <g id="Layer_3" data-name="Layer 3">
    <path class="cls-3" d="M91.66,95.04c-17.85,10.85-30.43,27.07-29.79,48.86.46,15.56,7.45,30.11,20.91,38.45,8.7,5.39,18.37,7.35,28.49,7.84,10.4.5,21.44-1.75,30.38-7.17,11.06-6.69,18.42-17.97,22.29-30.08,8.22-25.72-6.85-53.17-32.28-60.89-17.27-5.24-38.38,6.26-42.44,24.1-4.24,18.63,5.61,36.82,24.1,42.44l1.28.39-8.24-3.48c.83.32,1.62.73,2.35,1.25l-6.98-5.39c1.12.88,1.96,1.71,2.86,2.81l-5.39-6.98c.54.73,1,1.51,1.38,2.33-1.16-2.75-2.32-5.49-3.48-8.24.58,1.45.9,2.66,1.16,4.21l-1.23-9.17c.12,1.11.13,2.23.03,3.34l1.23-9.17c-.32,2.3-.89,4.34-1.78,6.49l3.48-8.24c-.72,1.43-1.45,2.7-2.36,4.01l5.39-6.98c-1,1.2-1.93,2.12-3.17,3.08l6.98-5.39c-.88.59-1.81,1.06-2.81,1.41l8.24-3.48c-1,.35-2.02.61-3.06.77l9.17-1.23c-3.54.44-7.05.39-10.59-.04l9.17,1.23c-1.86-.32-3.57-.77-5.32-1.47l8.24,3.48c-.81-.36-1.56-.81-2.27-1.34l6.98,5.39c-.7-.53-1.31-1.14-1.84-1.84l5.39,6.98c-.56-.75-1-1.58-1.3-2.47l3.48,8.24c-.31-.93-.51-1.89-.6-2.87l1.23,9.17c-.12-1.99-.09-3.93.08-5.92l-1.23,9.17c.25-1.52.57-2.77,1.13-4.2l-3.48,8.24c.39-.84.86-1.64,1.41-2.39l-5.39,6.98c1.2-1.51,2.49-2.78,3.97-4.01l-6.98,5.39c1.93-1.46,3.95-2.76,6.02-4.02,15.42-9.37,22.59-31.35,12.38-47.2-9.98-15.48-30.7-22.41-47.2-12.38h0Z"/>
    <path class="cls-3" d="M100.07,83.65c-19.5.12-39.64,1.81-56.74,12.13-19.17,11.58-33.01,33.01-31.35,55.95,1.02,14.08,6.41,26.27,16.23,36.54,6.51,6.81,14.95,12.6,23.11,17.37s16.47,8.24,25.03,11.32c6.03,2.16,12.39,3.27,18.31,5.7l-8.24-3.48c1.58.74,3.03,1.55,4.45,2.56-2.33-1.8-4.65-3.6-6.98-5.39.99.84,1.78,1.64,2.6,2.65l-5.39-6.98c.5.69.92,1.42,1.26,2.2l-3.48-8.24c.43,1,.72,2.03.87,3.11l-1.23-9.17c.14,1.68.09,3.14-.1,4.81l1.23-9.17c-.82,4.48-2.45,8.73-3.39,13.17-2.03,9.56-2.08,17.77-.17,27.3,2.97,14.88,12.79,28.4,25.82,36.1,15.77,9.32,34.65,9.47,50.94,1.6,11.76-5.69,18.77-15.74,26.48-25.76l-5.39,6.98c2.43-3.11,4.94-5.99,8.05-8.44l-6.98,5.39c2.16-1.51,4.36-2.72,6.78-3.75l-8.24,3.48c2.47-.9,4.92-1.52,7.52-1.91-3.06.41-6.11.82-9.17,1.23,2.62-.25,5.13-.24,7.75.06l-9.17-1.23c1.03.15,2.04.35,3.05.61,17.56,4,38.17-5.37,42.44-24.1,4-17.55-5.28-38.15-24.1-42.44-16.12-3.67-31.49-1.91-46.33,5.32-12.18,5.94-19.55,15.83-27.54,26.24,1.8-2.33,3.6-4.65,5.39-6.98-2.32,2.99-4.68,5.86-7.59,8.29l6.98-5.39c-1.52,1.12-3.03,2.02-4.75,2.8l8.24-3.48c-1.36.48-2.61.8-4.03,1.04l9.17-1.23c-1.43.12-2.73.13-4.16.02l9.17,1.23c-1.89-.28-3.62-.73-5.41-1.4l8.24,3.48c-1.74-.8-3.29-1.71-4.83-2.85l6.98,5.39c-1.12-.97-2.06-1.92-3.02-3.04l5.39,6.98c-1.2-1.63-2.16-3.27-3.01-5.11,1.16,2.75,2.32,5.49,3.48,8.24-.73-1.89-1.25-3.75-1.62-5.74l1.23,9.17c-.32-2.53-.34-4.95-.07-7.48l-1.23,9.17c1.44-8.72,4.87-16.34,5.05-25.44.28-13.34-4.98-25.83-14.44-35.15-11.92-11.74-28.43-13.36-43.18-19.36l8.24,3.48c-8.33-3.55-16.06-8.07-23.22-13.6l6.98,5.39c-2.61-2.1-5.01-4.28-7.13-6.89l5.39,6.98c-.94-1.33-1.72-2.61-2.44-4.08l3.48,8.24c-.73-1.84-1.22-3.62-1.53-5.58l1.23,9.17c-.18-1.97-.16-3.85.04-5.82l-1.23,9.17c.4-2.48,1.06-4.77,2.01-7.09l-3.48,8.24c.86-1.8,1.83-3.46,2.99-5.09l-5.39,6.98c1.63-2.05,3.4-3.83,5.41-5.51l-6.98,5.39c2.94-2.24,6.01-3.99,9.39-5.47l-8.24,3.48c4.81-1.91,9.74-3.04,14.86-3.75-3.06.41-6.11.82-9.17,1.23,6.28-.71,12.58-.82,18.9-.86,18.04-.11,35.34-15.79,34.5-34.5s-15.16-34.62-34.5-34.5h0Z"/>
    <path class="cls-3" d="M110.92,274.99c18.05,0,35.33-15.87,34.5-34.5s-15.16-34.5-34.5-34.5c-18.05,0-35.33,15.87-34.5,34.5s15.16,34.5,34.5,34.5h0Z"/>
    <path class="cls-3" d="M111.3,283.51c18.05,0,35.33-15.87,34.5-34.5-.84-18.69-15.16-34.5-34.5-34.5-18.05,0-35.33,15.87-34.5,34.5s15.16,34.5,34.5,34.5h0Z"/>
    <path class="cls-3" d="M76.7,252.82c-.39,3.79.33,7.8,1.56,11.41,2.56,7.51,4.51,10.7,9.82,16.69.32.36.68.65,1.05.95l6.98,5.39c.22.17.46.32.69.47.84.52,1.74.93,2.64,1.33,3.96,2.52,8.24,3.89,12.83,4.09,4.59,1.03,9.17.82,13.76-.62,4.49-1.07,8.4-3.13,11.73-6.18,3.76-2.43,6.72-5.66,8.89-9.68l3.48-8.24c1.64-6.11,1.64-12.23,0-18.34l-3.48-8.24c-3.07-5.18-7.19-9.31-12.38-12.38-1.16-.52-2.29-1.06-3.33-1.8,2.33,1.8,4.65,3.6,6.98,5.39-.54-.42-1-.87-1.42-1.41l5.39,6.98c-.22-.33-.41-.65-.58-1.01l3.48,8.24c-.14-.37-.25-.71-.32-1.1l1.23,9.17c-.04-.4-.04-.74,0-1.14.18-4.75-.81-9.18-2.97-13.29-1.39-4.28-3.77-7.98-7.13-11.1-3.12-3.36-6.83-5.74-11.1-7.13-4.11-2.16-8.54-3.15-13.29-2.97l-9.17,1.23c-5.84,1.64-10.92,4.6-15.22,8.87l-5.39,6.98c-3.12,5.38-4.69,11.19-4.71,17.41h0Z"/>
    <path class="cls-3" d="M129.11,292.8c18.05,0,35.33-15.87,34.5-34.5-.84-18.69-15.16-34.5-34.5-34.5-18.05,0-35.33,15.87-34.5,34.5s15.16,34.5,34.5,34.5h0Z"/>
    <path class="cls-3" d="M138.4,291.64c18.05,0,35.33-15.87,34.5-34.5-.84-18.69-15.16-34.5-34.5-34.5-18.05,0-35.33,15.87-34.5,34.5.84,18.69,15.16,34.5,34.5,34.5h0Z"/>
    <path class="cls-3" d="M149.24,291.25c18.05,0,35.33-15.87,34.5-34.5-.84-18.69-15.16-34.5-34.5-34.5-18.05,0-35.33,15.87-34.5,34.5s15.16,34.5,34.5,34.5h0Z"/>
    <path class="cls-3" d="M157.75,288.54c18.05,0,35.33-15.87,34.5-34.5-.84-18.69-15.16-34.5-34.5-34.5-18.05,0-35.33,15.87-34.5,34.5s15.16,34.5,34.5,34.5h0Z"/>
    <path class="cls-3" d="M162.01,280.41c18.05,0,35.33-15.87,34.5-34.5-.84-18.69-15.16-34.5-34.5-34.5-18.05,0-35.33,15.87-34.5,34.5s15.16,34.5,34.5,34.5h0Z"/>
    <path class="cls-3" d="M110.14,273.83c18.05,0,35.33-15.87,34.5-34.5-.84-18.69-15.16-34.5-34.5-34.5-18.05,0-35.33,15.87-34.5,34.5s15.16,34.5,34.5,34.5h0Z"/>
    <path class="cls-3" d="M67.56,230.09c18.05,0,35.33-15.87,34.5-34.5s-15.16-34.5-34.5-34.5c-18.05,0-35.33,15.87-34.5,34.5.84,18.69,15.16,34.5,34.5,34.5h0Z"/>
    <path class="cls-3" d="M53.63,214.6c18.05,0,35.33-15.87,34.5-34.5-.84-18.69-15.16-34.5-34.5-34.5-18.05,0-35.33,15.87-34.5,34.5.84,18.69,15.16,34.5,34.5,34.5h0Z"/>
    <path class="cls-3" d="M38.14,202.6c18.05,0,35.33-15.87,34.5-34.5s-15.16-34.5-34.5-34.5c-18.05,0-35.33,15.87-34.5,34.5.84,18.69,15.16,34.5,34.5,34.5h0Z"/>
    <path class="cls-3" d="M35.43,190.22c18.05,0,35.33-15.87,34.5-34.5s-15.16-34.5-34.5-34.5C17.39,121.22.1,137.08.93,155.72c.84,18.69,15.16,34.5,34.5,34.5h0Z"/>
    <path class="cls-3" d="M37.75,176.67c18.05,0,35.33-15.87,34.5-34.5s-15.16-34.5-34.5-34.5c-18.05,0-35.33,15.87-34.5,34.5.84,18.69,15.16,34.5,34.5,34.5h0Z"/>
    <path class="cls-3" d="M45.5,165.06c18.05,0,35.33-15.87,34.5-34.5s-15.16-34.5-34.5-34.5c-18.05,0-35.33,15.87-34.5,34.5.84,18.69,15.16,34.5,34.5,34.5h0Z"/>
    <path class="cls-3" d="M54.01,159.64c18.05,0,35.33-15.87,34.5-34.5s-15.16-34.5-34.5-34.5c-18.05,0-35.33,15.87-34.5,34.5.84,18.69,15.16,34.5,34.5,34.5h0Z"/>
    <path class="cls-3" d="M69.88,152.67c18.05,0,35.33-15.87,34.5-34.5-.84-18.69-15.16-34.5-34.5-34.5-18.05,0-35.33,15.87-34.5,34.5.84,18.69,15.16,34.5,34.5,34.5h0Z"/>
    <path class="cls-3" d="M74.92,140.67c18.05,0,35.33-15.87,34.5-34.5s-15.16-34.5-34.5-34.5c-18.05,0-35.33,15.87-34.5,34.5.84,18.69,15.16,34.5,34.5,34.5h0Z"/>
    <path class="cls-3" d="M71.82,129.06c18.05,0,35.33-15.87,34.5-34.5s-15.16-34.5-34.5-34.5c-18.05,0-35.33,15.87-34.5,34.5.84,18.69,15.16,34.5,34.5,34.5h0Z"/>
    <path class="cls-3" d="M75.3,115.89c18.05,0,35.33-15.87,34.5-34.5s-15.16-34.5-34.5-34.5c-18.05,0-35.33,15.87-34.5,34.5.84,18.69,15.16,34.5,34.5,34.5h0Z"/>
    <path class="cls-3" d="M79.17,105.44c18.05,0,35.33-15.87,34.5-34.5s-15.16-34.5-34.5-34.5c-18.05,0-35.33,15.87-34.5,34.5s15.16,34.5,34.5,34.5h0Z"/>
    <path class="cls-3" d="M96.87,92.24c4.35-1.62,8.74-2.72,13.33-3.35l-9.17,1.23c4.61-.48,9.14-.47,13.75.06l-9.17-1.23c3.72.54,7.43,1.26,10.92,2.7l-8.24-3.48,1.14.65-6.98-5.39,1,.85-5.39-6.98c.62.67,1.07,1.44,1.35,2.31-1.16-2.75-2.32-5.49-3.48-8.24l.3,1.3-1.23-9.17c.59,7.39-.93,12.97,1.06,20.81,2.23,8.8,7.49,17.66,14.34,23.65,7.19,6.29,15.53,11.06,24.91,13.26,7.97,1.87,16.27,2.22,24.39,3.14l-9.17-1.23c3.62.5,7.02,1.24,10.41,2.61l-8.24-3.48c1.72.83,3.27,1.77,4.82,2.89l-6.98-5.39c1.85,1.51,3.44,3.13,4.93,4.99l-5.39-6.98c1.4,1.94,2.56,3.94,3.56,6.11l-3.48-8.24c1.11,2.76,1.83,5.5,2.24,8.45l-1.23-9.17c.25,2.82.2,5.53-.11,8.34l1.23-9.17c-.53,3.36-1.4,6.54-2.63,9.72l3.48-8.24c-4.52,10.46-13.36,18.13-18,28.5-5.84,13.07-9.02,26.78-3.19,40.58,6.96,16.48,22.18,24.55,39.71,24.64,8.48.05,17.39-1.14,25.48-3.72,10.03-3.21,20.74-7.94,28.44-15.4,12.51-12.11,17.24-31.36,19.91-48.13,1.5-9.47,1.55-18-3.48-26.58-4.19-7.16-12.39-13.98-20.62-15.85-8.83-2.01-18.74-1.58-26.58,3.48-7.07,4.56-14.48,11.94-15.85,20.62-1.52,9.58-3.74,19.29-7.51,28.27l3.48-8.24c-.41.92-.92,1.78-1.52,2.59l5.39-6.98c-.59.76-1.26,1.45-2.01,2.05l6.98-5.39c-2.57,1.94-5.38,3.37-8.31,4.7l8.24-3.48c-4.34,1.79-8.75,3.03-13.39,3.78l9.17-1.23c-3.97.51-7.9.7-11.88.33l9.17,1.23-1.4-.33,8.24,3.48-1.25-.67,6.98,5.39-.91-1c1.8,2.33,3.6,4.65,5.39,6.98l-.56-1.22,3.48,8.24-.27-1.37c.41,3.06.82,6.11,1.23,9.17-.08-.95-.05-1.9.11-2.85l-1.23,9.17c.38-1.96.9-3.79,1.61-5.65l-3.48,8.24c3.67-8.37,10.31-14.73,14.97-22.48,9.48-15.78,12.1-33.54,9.13-51.49-2.42-14.58-11.47-27.75-22.98-36.64-6.67-5.15-14.19-9.14-22.52-10.94s-16.27-2.09-24.4-3.08l9.17,1.23c-3-.45-5.85-1.08-8.71-2.09l8.24,3.48c-1.97-.86-3.69-1.81-5.41-3.09l6.98,5.39c-1.16-1.01-2.11-1.99-3.08-3.19l5.39,6.98c-.58-.78-1.08-1.62-1.49-2.5l3.48,8.24c-.57-1.44-.89-2.65-1.1-4.19l1.23,9.17c-.06-2.49.37-4.91.45-7.38.26-7.52-1.51-15.61-5.36-22.13-6.53-11.07-17.27-18.01-29.67-20.86-16.48-3.79-34.55-3.58-50.51,2.38-8.61,3.22-15.84,7.69-20.62,15.85-4.33,7.39-6.16,18.29-3.48,26.58,5.34,16.49,24.34,30.86,42.44,24.1h0Z"/>
    <path class="cls-3" d="M176.77,116.82c3.78,1.05,7.45,2.3,11.07,3.81l-8.24-3.48c5.13,2.26,9.93,4.98,14.44,8.31l-6.98-5.39c3.84,2.99,7.27,6.31,10.34,10.07-1.8-2.33-3.6-4.65-5.39-6.98,2.93,3.81,5.34,7.84,7.25,12.25l-3.48-8.24c1.67,4.24,2.69,8.53,3.32,13.04l-1.23-9.17c1.81,16.1,2.06,33.14.12,49.23l1.23-9.17c-.96,6.97-2.42,13.85-3.35,20.83-1.29,9.64-1.23,18.11,1.14,27.8,4.29,17.54,25.06,29.72,42.44,24.1,18.21-5.89,28.7-23.65,24.1-42.44-.32-1.14-.56-2.29-.72-3.46l1.23,9.17c-.38-3.57-.23-7.02.19-10.58l-1.23,9.17c2.27-15.58,5.16-30.81,5.07-46.63-.09-14.98.08-31.31-4.18-45.75-9.48-32.18-37.26-54.28-68.79-63.02-17.38-4.82-38.31,5.95-42.44,24.1-4.16,18.26,5.48,37.28,24.1,42.44h0Z"/>
    <path class="cls-3" d="M205.37,268.41c18.05,0,35.33-15.87,34.5-34.5-.84-18.69-15.16-34.5-34.5-34.5-18.05,0-35.33,15.87-34.5,34.5.84,18.69,15.16,34.5,34.5,34.5h0Z"/>
    <path class="cls-3" d="M213.88,270.73c18.05,0,35.33-15.87,34.5-34.5-.84-18.69-15.16-34.5-34.5-34.5-18.05,0-35.33,15.87-34.5,34.5.84,18.69,15.16,34.5,34.5,34.5h0Z"/>
    <path class="cls-3" d="M204.98,269.18c18.05,0,35.33-15.87,34.5-34.5-.84-18.69-15.16-34.5-34.5-34.5-18.05,0-35.33,15.87-34.5,34.5.84,18.69,15.16,34.5,34.5,34.5h0Z"/>
    <path class="cls-3" d="M225.11,270.73c18.05,0,35.33-15.87,34.5-34.5-.84-18.69-15.16-34.5-34.5-34.5-18.05,0-35.33,15.87-34.5,34.5.84,18.69,15.16,34.5,34.5,34.5h0Z"/>
    <path class="cls-3" d="M237.88,268.8c18.05,0,35.33-15.87,34.5-34.5-.84-18.69-15.16-34.5-34.5-34.5-18.05,0-35.33,15.87-34.5,34.5.84,18.69,15.16,34.5,34.5,34.5h0Z"/>
    <path class="cls-3" d="M246.01,267.64c18.05,0,35.33-15.87,34.5-34.5-.84-18.69-15.16-34.5-34.5-34.5-18.05,0-35.33,15.87-34.5,34.5.84,18.69,15.16,34.5,34.5,34.5h0Z"/>
    <path class="cls-3" d="M253.37,266.86c18.05,0,35.33-15.87,34.5-34.5-.84-18.69-15.16-34.5-34.5-34.5-18.05,0-35.33,15.87-34.5,34.5.84,18.69,15.16,34.5,34.5,34.5h0Z"/>
    <path class="cls-3" d="M259.17,266.09c18.05,0,35.33-15.87,34.5-34.5-.84-18.69-15.16-34.5-34.5-34.5-18.05,0-35.33,15.87-34.5,34.5.84,18.69,15.16,34.5,34.5,34.5h0Z"/>
    <path class="cls-3" d="M263.05,265.7c18.05,0,35.33-15.87,34.5-34.5-.84-18.69-15.16-34.5-34.5-34.5-18.05,0-35.33,15.87-34.5,34.5.84,18.69,15.16,34.5,34.5,34.5h0Z"/>
    <path class="cls-3" d="M263.43,256.8c18.05,0,35.33-15.87,34.5-34.5-.84-18.69-15.16-34.5-34.5-34.5-18.05,0-35.33,15.87-34.5,34.5.84,18.69,15.16,34.5,34.5,34.5h0Z"/>
    <path class="cls-3" d="M264.21,249.06c18.05,0,35.33-15.87,34.5-34.5-.84-18.69-15.16-34.5-34.5-34.5-18.05,0-35.33,15.87-34.5,34.5.84,18.69,15.16,34.5,34.5,34.5h0Z"/>
    <path class="cls-3" d="M264.59,240.54c18.05,0,35.33-15.87,34.5-34.5-.84-18.69-15.16-34.5-34.5-34.5-18.05,0-35.33,15.87-34.5,34.5.84,18.69,15.16,34.5,34.5,34.5h0Z"/>
    <path class="cls-3" d="M260.72,229.7c18.05,0,35.33-15.87,34.5-34.5-.84-18.69-15.16-34.5-34.5-34.5-18.05,0-35.33,15.87-34.5,34.5.84,18.69,15.16,34.5,34.5,34.5h0Z"/>
    <path class="cls-3" d="M256.85,220.8c18.05,0,35.33-15.87,34.5-34.5-.84-18.69-15.16-34.5-34.5-34.5-18.05,0-35.33,15.87-34.5,34.5.84,18.69,15.16,34.5,34.5,34.5h0Z"/>
    <path class="cls-3" d="M200.34,100.8c18.05,0,35.33-15.87,34.5-34.5-.84-18.69-15.16-34.5-34.5-34.5-18.05,0-35.33,15.87-34.5,34.5.84,18.69,15.16,34.5,34.5,34.5h0Z"/>
    <path class="cls-3" d="M216.21,108.15c18.05,0,35.33-15.87,34.5-34.5-.84-18.69-15.16-34.5-34.5-34.5-18.05,0-35.33,15.87-34.5,34.5.84,18.69,15.16,34.5,34.5,34.5h0Z"/>
    <path class="cls-3" d="M232.85,111.25c18.05,0,35.33-15.87,34.5-34.5-.84-18.69-15.16-34.5-34.5-34.5-18.05,0-35.33,15.87-34.5,34.5.84,18.69,15.16,34.5,34.5,34.5h0Z"/>
    <path class="cls-3" d="M244.85,111.25c18.05,0,35.33-15.87,34.5-34.5-.84-18.69-15.16-34.5-34.5-34.5-18.05,0-35.33,15.87-34.5,34.5.84,18.69,15.16,34.5,34.5,34.5h0Z"/>
    <path class="cls-3" d="M254.53,111.64c18.05,0,35.33-15.87,34.5-34.5-.84-18.69-15.16-34.5-34.5-34.5-18.05,0-35.33,15.87-34.5,34.5.84,18.69,15.16,34.5,34.5,34.5h0Z"/>
    <path class="cls-3" d="M264.98,117.44c18.05,0,35.33-15.87,34.5-34.5-.84-18.69-15.16-34.5-34.5-34.5-18.05,0-35.33,15.87-34.5,34.5.84,18.69,15.16,34.5,34.5,34.5h0Z"/>
    <path class="cls-3" d="M271.95,123.64c18.05,0,35.33-15.87,34.5-34.5-.84-18.69-15.16-34.5-34.5-34.5-18.05,0-35.33,15.87-34.5,34.5.84,18.69,15.16,34.5,34.5,34.5h0Z"/>
    <path class="cls-3" d="M275.43,131.76c18.05,0,35.33-15.87,34.5-34.5-.84-18.69-15.16-34.5-34.5-34.5-18.05,0-35.33,15.87-34.5,34.5.84,18.69,15.16,34.5,34.5,34.5h0Z"/>
    <path class="cls-3" d="M276.59,137.96c18.05,0,35.33-15.87,34.5-34.5-.84-18.69-15.16-34.5-34.5-34.5-18.05,0-35.33,15.87-34.5,34.5.84,18.69,15.16,34.5,34.5,34.5h0Z"/>
    <path class="cls-3" d="M273.88,147.64c18.05,0,35.33-15.87,34.5-34.5-.84-18.69-15.16-34.5-34.5-34.5-18.05,0-35.33,15.87-34.5,34.5.84,18.69,15.16,34.5,34.5,34.5h0Z"/>
    <path class="cls-3" d="M270.79,156.15c18.05,0,35.33-15.87,34.5-34.5-.84-18.69-15.16-34.5-34.5-34.5-18.05,0-35.33,15.87-34.5,34.5.84,18.69,15.16,34.5,34.5,34.5h0Z"/>
    <path class="cls-3" d="M267.69,163.51c18.05,0,35.33-15.87,34.5-34.5-.84-18.69-15.16-34.5-34.5-34.5-18.05,0-35.33,15.87-34.5,34.5.84,18.69,15.16,34.5,34.5,34.5h0Z"/>
    <path class="cls-3" d="M263.05,168.93c18.05,0,35.33-15.87,34.5-34.5-.84-18.69-15.16-34.5-34.5-34.5-18.05,0-35.33,15.87-34.5,34.5.84,18.69,15.16,34.5,34.5,34.5h0Z"/>
    <path class="cls-3" d="M261.88,171.25c18.05,0,35.33-15.87,34.5-34.5-.84-18.69-15.16-34.5-34.5-34.5-18.05,0-35.33,15.87-34.5,34.5.84,18.69,15.16,34.5,34.5,34.5h0Z"/>
    <path class="cls-3" d="M143.82,96.54c18.05,0,35.33-15.87,34.5-34.5-.84-18.69-15.16-34.5-34.5-34.5-18.05,0-35.33,15.87-34.5,34.5s15.16,34.5,34.5,34.5h0Z"/>
    <path class="cls-3" d="M97.37,84.54c18.05,0,35.33-15.87,34.5-34.5s-15.16-34.5-34.5-34.5c-18.05,0-35.33,15.87-34.5,34.5s15.16,34.5,34.5,34.5h0Z"/>
    <path class="cls-3" d="M109.37,77.96c18.05,0,35.33-15.87,34.5-34.5s-15.16-34.5-34.5-34.5c-18.05,0-35.33,15.87-34.5,34.5s15.16,34.5,34.5,34.5h0Z"/>
    <path class="cls-3" d="M119.05,73.7c18.05,0,35.33-15.87,34.5-34.5S138.39,4.7,119.05,4.7c-18.05,0-35.33,15.87-34.5,34.5s15.16,34.5,34.5,34.5h0Z"/>
    <path class="cls-3" d="M124.46,70.6c18.05,0,35.33-15.87,34.5-34.5-.84-18.69-15.16-34.5-34.5-34.5-18.05,0-35.33,15.87-34.5,34.5.84,18.69,15.16,34.5,34.5,34.5h0Z"/>
    <path class="cls-3" d="M133.37,72.54c18.05,0,35.33-15.87,34.5-34.5-.84-18.69-15.16-34.5-34.5-34.5-18.05,0-35.33,15.87-34.5,34.5s15.16,34.5,34.5,34.5h0Z"/>
    <path class="cls-3" d="M139.95,76.02c18.05,0,35.33-15.87,34.5-34.5-.84-18.69-15.16-34.5-34.5-34.5-18.05,0-35.33,15.87-34.5,34.5s15.16,34.5,34.5,34.5h0Z"/>
    <path class="cls-3" d="M144.21,81.06c18.05,0,35.33-15.87,34.5-34.5-.84-18.69-15.16-34.5-34.5-34.5-18.05,0-35.33,15.87-34.5,34.5s15.16,34.5,34.5,34.5h0Z"/>
    <path class="cls-3" d="M145.37,82.22c18.05,0,35.33-15.87,34.5-34.5-.84-18.69-15.16-34.5-34.5-34.5-18.05,0-35.33,15.87-34.5,34.5s15.16,34.5,34.5,34.5h0Z"/>
  </g>
  <g id="Layer_4" data-name="Layer 4">
    <path class="cls-2" d="M102.79,68.62c17.75,14.65,34.13,30.89,50.69,46.86,26.91,26.59,54.58,54.72,79.37,83.21-45.55-40.72-88.68-85.17-130.06-130.06h0Z"/>
    <path class="cls-2" d="M112.04,86.76c19.18,12.73,37.16,27.18,55.28,41.34,29.52,23.65,59.97,48.75,87.59,74.51-49.53-35.76-97.05-75.5-142.87-115.85h0Z"/>
    <path class="cls-2" d="M174.9,139.69c-6.96,20.7-16.2,40.58-25.35,60.38-9.38,19.72-19.13,39.24-30.27,58.07,15.36-40.81,34.62-80.26,55.62-118.45h0Z"/>
    <path class="cls-2" d="M196.02,82.79c-6.53,22.07-15.06,43.51-23.26,64.99-13.92,35.17-28.97,71.65-45.47,105.62,19.62-57.86,43.63-114.95,68.72-170.62h0Z"/>
    <path class="cls-2" d="M179.51,87.49c-3.03,22.82-8.13,45.31-12.9,67.81-8.3,36.9-17.51,75.27-28.55,111.39,10.42-60.2,25.29-120.33,41.46-179.21h0Z"/>
    <path class="cls-2" d="M211.08,78.17c-9.81,20.82-21.5,40.71-32.88,60.7-19.11,32.64-39.53,66.41-61.01,97.47,28.2-54.2,60.62-106.98,93.89-158.17h0Z"/>
    <path class="cls-2" d="M130.16,236.34c6.43-22.1,14.85-43.58,22.96-65.1,13.76-35.23,28.64-71.78,44.98-105.83-19.35,57.95-43.1,115.15-67.94,170.93h0Z"/>
    <path class="cls-2" d="M63.36,192.22c15.85-10.46,32.91-18.99,49.88-27.44,17.1-8.26,34.35-16.14,52.24-22.61-32.39,19.71-66.94,35.99-102.13,50.05h0Z"/>
    <path class="cls-2" d="M126.85,56.43c13.07,18.94,24.4,39.04,35.97,58.92,18.62,32.92,37.56,67.54,53.63,101.72-32.7-51.61-62.05-106.15-89.6-160.64h0Z"/>
    <path class="cls-2" d="M249.86,121.89c-21.86,7.19-44.34,12.37-66.68,17.85-36.84,8.56-75.41,16.94-112.73,22.7,58.74-16.78,119.36-29.52,179.41-40.55h0Z"/>
    <path class="cls-2" d="M165.48,140.28c-12.87,13.43-27.37,25.23-41.78,36.94-14.58,11.56-29.39,22.77-45.14,32.75,26.69-25.82,56.25-48.77,86.91-69.69h0Z"/>
    <path class="cls-2" d="M47.99,137.34c22.94-1.86,46.01-1.62,69.01-1.7,37.82.33,77.28,1.23,114.91,4.39-61.04,2.53-122.95.68-183.92-2.69h0Z"/>
    <path class="cls-2" d="M112.32,63.41c15.57,16.95,29.57,35.28,43.79,53.36,23.01,30.02,46.56,61.69,67.22,93.3-39.54-46.58-76.16-96.53-111-146.67h0Z"/>
    <path class="cls-2" d="M158.59,133.65c1.95,19.13,1.59,38.44,1.22,57.64-.59,19.22-1.6,38.4-4.16,57.49-2.47-38.31-.88-76.95,2.95-115.13h0Z"/>
    <path class="cls-2" d="M246.75,114.01c-21.62,7.9-43.91,13.82-66.06,20.04-36.54,9.77-74.81,19.41-111.92,26.4,58.16-18.7,118.32-33.43,177.98-46.43h0Z"/>
    <path class="cls-2" d="M158.79,140.03c3.11,16.52,4.06,33.37,4.92,50.13.65,16.79.9,33.56-.42,50.36-4.93-33.24-5.94-66.95-4.5-100.48h0Z"/>
    <path class="cls-2" d="M248.39,213.45c-18.04-14.3-34.74-30.21-51.61-45.85-27.43-26.05-55.65-53.63-81-81.62,46.34,39.81,90.34,83.4,132.61,127.47h0Z"/>
    <path class="cls-2" d="M212.7,86.04c-11.7,19.82-25.18,38.54-38.36,57.39-22.05,30.73-45.52,62.46-69.78,91.4,33.1-51.35,70.26-100.9,108.14-148.8h0Z"/>
    <path class="cls-2" d="M162.01,139.69c-18.7-3.39-36.94-9.02-55.06-14.65-18.08-5.85-36.01-12.07-53.42-19.77,37.05,8.14,73.31,20.26,108.48,34.42h0Z"/>
    <path class="cls-2" d="M238.85,95.96c-18.27,14-37.78,26.3-57.06,38.84-31.96,20.23-65.6,40.86-98.94,58.61,49.92-35.22,102.95-67.23,156-97.45h0Z"/>
    <path class="cls-2" d="M147.75,62.04c6.2,12.62,10.49,25.93,14.62,39.31,3.96,13.42,7.51,26.93,9.56,40.82-5.87-12.76-10.29-26-14.35-39.39-4.01-13.39-7.4-26.96-9.83-40.74h0Z"/>
    <path class="cls-2" d="M104.3,95.47c15.41,6.74,29.86,15.43,44.2,24.16,14.24,8.91,28.24,18.16,41.38,28.69-30.25-14.64-58.67-32.78-85.58-52.85h0Z"/>
    <path class="cls-2" d="M168.4,95.96c3.06,18.08,4.59,36.28,5.75,54.54,1.03,18.27,1.66,36.52.76,54.84-3.07-18.07-4.6-36.28-5.75-54.54-1.02-18.27-1.65-36.52-.76-54.84h0Z"/>
    <path class="cls-2" d="M178.77,146.65c-9.11-1.98-17.67-5.36-26.11-9.13-8.4-3.88-16.57-8.1-24.04-13.68,9.12,1.97,17.67,5.35,26.11,9.13,8.39,3.89,16.56,8.11,24.04,13.68h0Z"/>
    <path class="cls-2" d="M200.54,135.25c-13.7,5.75-27.85,10.05-42.13,13.98-14.32,3.81-28.7,7.23-43.44,9.15,13.7-5.77,27.85-10.06,42.13-13.98,14.32-3.8,28.7-7.22,43.44-9.15h0Z"/>
    <path class="cls-2" d="M166.77,121.25c-4.55,11.11-10.42,21.47-16.66,31.66-6.33,10.13-12.98,20.01-20.91,29.03,4.54-11.12,10.42-21.47,16.66-31.66,6.34-10.13,12.99-20,20.91-29.03h0Z"/>
    <path class="cls-2" d="M162.46,93.93c5.08,13.97,8.69,28.31,11.92,42.78,3.11,14.49,5.83,29.03,7.04,43.85-5.09-13.97-8.7-28.31-11.92-42.78-3.1-14.49-5.82-29.03-7.04-43.85h0Z"/>
    <path class="cls-2" d="M172.67,93c.84,18.81.16,37.56-.91,56.32-1.19,18.75-2.78,37.45-5.9,56.02-.85-18.81-.17-37.56.91-56.32,1.2-18.75,2.79-37.45,5.9-56.02h0Z"/>
    <path class="cls-2" d="M167.99,141.18c-3.17,9.87-7.7,19.07-12.61,28.13-5.01,9-10.35,17.76-16.99,25.72,3.16-9.87,7.69-19.07,12.61-28.13,5.02-9,10.36-17.75,16.99-25.72h0Z"/>
    <path class="cls-2" d="M179.63,111.05c-6.31,13.46-13.93,26.13-21.89,38.62-8.07,12.43-16.45,24.61-26.09,35.91,6.3-13.46,13.92-26.13,21.89-38.62,8.07-12.42,16.46-24.6,26.09-35.91h0Z"/>
    <path class="cls-2" d="M122.03,99.59c16,10.83,30.66,23.55,45.22,36.2,14.44,12.84,28.58,25.97,41.66,40.24-31.12-22.79-59.89-48.91-86.88-76.45h0Z"/>
    <path class="cls-2" d="M176.52,135.25c-1.33,12.48-4.14,24.62-7.34,36.71-3.32,12.05-7,23.95-12.16,35.4,1.31-12.49,4.13-24.63,7.34-36.71,3.32-12.05,7.02-23.95,12.16-35.4h0Z"/>
    <path class="cls-2" d="M138.72,59.72c10.79,20.33,19.71,41.6,28.9,62.69,14.69,34.86,29.49,71.44,41.5,107.25-26.5-55.05-49.34-112.62-70.4-169.93h0Z"/>
    <path class="cls-2" d="M152.63,125.14c15.69,12.82,29.84,27.43,43.93,41.96,13.94,14.7,27.55,29.68,40.02,45.69-30.36-26.73-58.08-56.58-83.94-87.65h0Z"/>
    <path class="cls-2" d="M127.3,116.62c18.56,5.79,36.39,13.78,54.11,21.73,17.65,8.17,35.1,16.7,51.86,26.63-36.62-12.92-71.94-29.71-105.97-48.36h0Z"/>
    <path class="cls-2" d="M116.14,48.08c12.68,17.91,23.67,36.97,34.88,55.83,18.05,31.23,36.39,64.09,51.9,96.6-31.75-48.85-60.19-100.62-86.78-152.42h0Z"/>
    <path class="cls-2" d="M187.05,99.75c-4.91,17.66-11.25,34.8-17.96,51.82-6.83,16.97-14.01,33.77-22.6,49.97,4.9-17.67,11.24-34.8,17.96-51.82,6.84-16.97,14.02-33.77,22.6-49.97h0Z"/>
    <path class="cls-2" d="M187.53,146.65c-9.11-1.98-17.67-5.36-26.11-9.13-8.4-3.88-16.57-8.1-24.04-13.68,9.12,1.97,17.67,5.35,26.11,9.13,8.39,3.89,16.56,8.11,24.04,13.68h0Z"/>
    <path class="cls-2" d="M209.67,126.68c-8.05,4.71-16.64,8-25.41,10.94-8.81,2.82-17.69,5.24-26.96,6.19,8.04-4.72,16.63-8.01,25.41-10.94,8.81-2.81,17.69-5.23,26.96-6.19h0Z"/>
  </g>
  <g id="Layer_5" data-name="Layer 5">
    <g class="cls-5">
      <path class="cls-1" d="M36.51,113.31c7.35-6.47,14.32-12.09,16.31-22.29.85-4.36.84-8.81,1.8-13.16,1.09-4.94,2.83-9.68,5.11-14.19,6.55-12.94,15.61-24.44,27.68-32.61,13.3-8.99,27.88-13.08,43.93-12.67,9.84.25,19.1,2.24,25.56,10.3,4.38,5.46,6.5,12.47,11.33,17.61,4.93,5.25,12.47,7.21,19.09,4.08,5.45-2.57,9.99-5.45,16.06-3.8,8.17,2.23,15.77,5.72,24.16,7.34,7.26,1.4,14.56,1.19,21.84,2.19,17.74,2.45,33.82,10.12,42.47,26.37,1.89,3.56,2.24,4.35,3.46,8.48,1.56,5.29,2.13,10.67,1.93,16.17-.32,8.56-2.62,17.26-6.54,24.88-3.08,5.99-7.07,10.09-11.84,15.26-2.93,3.18-6.89,5.99-9.01,9.77-4.1,7.32.19,14.79,4.32,20.91s7.29,11.29,8.31,18.29c1.2,8.21.65,16.79.48,25.05-.13,6.52.25,15.83-2.35,21.17-.2.42-.44.82-.69,1.22-1.1,1.78.49-.49-.28.44-.97,1.17-2.09,2.05-3.38,2.83-4.28,2.59-9.21,4.4-14.01,5.73-9.24,2.56-19.04,3.61-28.53,4.82-6.18.79-12.51,1.52-18.7.53-7.22-1.15-14.18-4.73-21.5-5.11s-13.21,3.85-16.08,10.39c-3.51,8.01-8.86,10.16-16.95,12.25-14.99,3.87-30.18,4.56-45.63,3.93-6.88-.28-11.42-1.3-15.85-7.04-4.12-5.33-6.17-12.15-7.75-18.6-3.12-12.78,2.63-33.4-15.15-36.9-3.3-.65-6.7-.26-10-.85-4.88-.87-8.93-3.52-12.47-6.86-6.18-5.83-12.25-11.68-18.96-16.9-2.1-1.63-4.24-3.21-6.4-4.77-.65-.47-1.3-.93-1.94-1.41,1.32,1-.71-.6-1.04-.9-.65-.59-1.24-1.22-1.83-1.86-.19-.21-.82-.99.02.08-.25-.33-.5-.67-.73-1.02-2.53-3.75-4.52-7.78-5.86-12.1-4.21-13.58-2.71-28.14,4.68-40.13,3.99-6.47,9.32-11.86,14.95-16.92,6.71-6.04-3.21-15.91-9.9-9.9-13.16,11.83-23.24,26.09-25.57,43.96-2.02,15.42,1.83,32.9,11.81,45.05,2.51,3.06,5.7,5.31,8.89,7.62,6.05,4.38,11.67,9.24,17.1,14.38,7.58,7.18,14.8,13.93,25.6,15.51,2.89.42,7.26-.38,9.88.96,1.47.75,1.17,1.78,1.27,3.91.74,16.52,2.3,33.8,13.22,47.19,5.37,6.58,12.2,10.2,20.54,11.12,10.12,1.11,20.67.89,30.8.04,6.45-.54,12.92-1.41,19.22-2.89,8.04-1.88,16.53-3.86,22.89-9.47,3.52-3.11,5.58-6.83,7.52-11,1.24-2.67,1.54-3.13,3.74-2.87s5.94,1.7,8.56,2.45c4.87,1.41,9.84,2.43,14.9,2.94,6.86.68,13.83-.4,20.61-1.32,9.98-1.35,20.33-2.35,30.01-5.28,8.7-2.64,18.81-6.52,24.06-14.4,3.79-5.69,4.51-12.94,4.96-19.57.68-10.02.87-20.32.32-30.35-.39-7.11-1.53-13.96-4.61-20.43-1.99-4.18-4.67-7.92-7.21-11.78-.95-1.45-1.72-3.02-2.67-4.45-.59-.9-.29-.84-.28-1-.04.93-.63.72.25-.09.63-.58,1.24-1.2,1.85-1.8.85-.84,1.71-1.69,2.54-2.55,1.93-2.01,3.8-4.1,5.65-6.19,11.84-13.32,18.65-29.56,18.83-47.62.18-18.08-7.7-36.21-21.67-47.86-8.25-6.88-17.75-10.41-28-13.15-8.36-2.23-16.58-2.38-25.1-3.24-16.5-1.67-32.03-13.67-48.67-6.83-5.41,2.22-7.32,5.94-10.94.25-4.58-7.2-7.93-14.81-14.67-20.41-15.8-13.12-41.55-12.13-60.1-5.98-31.07,10.3-58.24,39.78-62.14,72.81-.53,4.47-.55,8.95-3.18,12.85s-6.8,6.52-10.19,9.5c-6.77,5.97,3.16,15.84,9.9,9.9Z"/>
    </g>
  </g>
  <g id="Layer_1" data-name="Layer 1">
    <g>
      <path d="M82.3,83.41c-24.58-.46-49.09,10.34-64.28,29.73C1.19,134.33-.91,166.37,12.82,189.5c1.4,2.09,2.93,3.93,5.05,5.24,10.75,7.08,20.63,15.85,28.16,26.31,1.1,1.31,2.62,2.37,4.1,3.33,0,0,.45.3.45.3l.48.25c1.53.87,3.34,1.6,4.99,2.2,1.66.48,3.67,1,5.39,1.23,17.59,2.39,37.44-5.19,48.91-18.79,3.97-4.7,7.18-10.03,9.62-15.69-2.05,5.84-4.98,11.41-8.8,16.36-8.33,11.03-21.24,18.03-34.71,20.66-9.01,1.59-18.82,1.39-27.05-2.99-.62-.28-1.53-.92-2.11-1.3-2.77-1.57-5.03-4.5-6.85-6.95-2.79-3.58-6.01-6.75-9.38-9.81-5.09-4.64-10.61-8.75-16.37-12.53-4.67-3.53-7.43-8.97-9.62-14.2-9.24-23.61-5.95-52.29,10.52-71.92,15.94-19.46,41.75-29.92,66.71-27.79h0Z"/>
      <path d="M282.27,164.64c14.8-14.64,24.52-33.7,27.1-54.37,2.2-14.31-1.61-29.36-10.78-40.57-7.26-8.86-16.56-16.55-26.94-21.56-5.11-2.45-10.68-4.31-16.31-4.73-5.74-.28-12.05,1-17.92-.01-6.07-.89-12.02-2.56-17.57-5.16-4.11-1.9-7.69-4.05-11.98-5.03-6.93-1.29-14.57-1.08-21.08,1.45-11.31,4.38-14.86,17.72-14.17,28.89.29,5.91,1.65,11.73,3.58,17.33-4.69-10.94-6.85-23.63-2.76-35.18,5.21-14.81,21.17-17.85,35.1-15.65,4.5.85,8.76,3.22,12.75,5,5.26,2.38,10.91,3.84,16.61,4.59,5.97.9,11.55-.42,17.69-.13,6.32.45,12.24,2.41,17.79,5.03,21.49,10.7,40.66,31.79,39.68,57.08-.92,24.18-12.59,47.29-30.79,63.03h0Z"/>
      <path d="M37.48,94.41c1-30.55,16.62-61.16,43.14-77.16,7.59-4.53,15.11-8.56,23.15-12.24,12.1-5.74,26.54-6.59,39.16-2.26,16.94,5.26,30.6,19.04,36.08,35.76-6.97-15.74-20.41-28.19-37.01-32.77-18.22-5.29-32.09-.42-48.1,8.64-7.62,3.95-15.01,8.05-21.59,13.54-19.91,16.3-31.54,41.24-34.84,66.5h0Z"/>
      <path d="M190.97,266.6c20.39,5.55,40.48,4.23,61.02.39,9.89-1.8,20.27-2.73,29.28-7.35,4.31-2.27,7.72-5.78,10.27-9.89,7.63-13.37,5.37-29.24,4.15-44.19-1-12.51-2.87-25.45-10.7-35.63-4.57-5.99-10.51-10.9-17.29-14.3-9.06-4.59-19.32-6.77-29.62-7.04,10.3-.62,20.85,1.02,30.47,5.27,9.62,4.31,18.05,11.59,23.16,20.93,5.24,9.27,6.66,20.06,7.75,30.41,1.45,15.22,3.79,32.55-4.59,46.59-2.9,4.64-6.92,8.73-11.84,11.2-9.52,4.7-20.29,5.59-30.6,7.09-21.17,3.24-40.98,3.82-61.47-3.46h0Z"/>
      <path d="M75.28,229.7c.33,5,.6,10.01.96,14.99.73,8.56,1.26,17.41,4.97,25.24,2.7,5.48,6.84,10.14,11.2,14.35,3.51,3.35,7.5,6.13,11.94,7.74,4.53,1.79,9.27,1.55,14.1,1.26,14.34-1.11,30.41-1.32,44.12-5.71,7.45-2.3,15.14-4.86,20.89-10.19,1.13-1.25,2.08-2.48,2.81-4.16,2.11-4.43,3.96-9.03,5.45-13.71,1.02-3.48,2.07-7.05,2.48-10.67.54-6.15.25-12.35-.12-18.55-.61-9.96-1.87-19.89-3.34-29.8,3.44,14.66,6.01,29.61,6.31,44.74.05,10.16-3.58,20.28-7.61,29.49-.73,1.8-2.05,3.72-3.39,5.18-6.1,6.01-14.44,8.95-22.37,11.42-14.57,4.7-29.92,4.76-45.03,5.73-5.11.25-10.68.29-15.53-1.76-4.97-1.9-9.28-5.13-12.88-8.79-4.49-4.61-8.64-9.59-11.23-15.52-3.55-8.25-3.68-17.46-3.87-26.25-.05-5.02.05-10.03.14-15.04h0Z"/>
    </g>
    <path class="cls-4" d="M172.03,120.2c-7.24-1.56-13.57,6.47-14.38,7.51-3.4,4.32-3.74,8.14-5.22,15.91-4.28,22.5-8.43,27.25-4.96,30.93,3.42,3.63,11.37,3.14,16.29,0,5.45-3.48,3.99-8.19,10.44-21.51,5.09-10.52,7.95-11.61,7.89-17.18-.06-6.18-3.66-14.28-10.06-15.66Z"/>
  </g>
</svg>